<?xml version="1.0" encoding="utf-8"?>
<!-- Generator: Adobe Illustrator 22.0.0, SVG Export Plug-In . SVG Version: 6.00 Build 0)  -->
<svg version="1.1" id="Shape_1_kопировать_1_"
	 xmlns="http://www.w3.org/2000/svg" xmlns:xlink="http://www.w3.org/1999/xlink" x="0px" y="0px" viewBox="0 0 20 18"
	 style="enable-background:new 0 0 20 18;" xml:space="preserve">
<style type="text/css">
	.st0{fill-rule:evenodd;clip-rule:evenodd;fill:#C72526;}
</style>
<g id="Shape_1_kопировать">
	<g>
		<path class="st0" d="M19.8,16L11.1,0.7c-0.5-0.9-1.8-0.9-2.3,0L0.2,16c-0.5,0.9,0.1,2,1.1,2h17.4C19.7,18,20.3,16.9,19.8,16z
			 M10,5.4c0.6,0,1,0.5,1,1l-0.2,5.8c0,0.5-0.4,0.8-0.8,0.8c-0.5,0-0.8-0.4-0.8-0.8L9,6.4C9,5.9,9.5,5.4,10,5.4z M10,15.9
			c-0.6,0-1-0.5-1-1.1c0-0.6,0.5-1.1,1-1.1c0.6,0,1,0.5,1,1.1C11,15.4,10.6,15.9,10,15.9z"/>
	</g>
</g>
</svg>
