<?xml version="1.0" encoding="utf-8"?>
<!-- Generator: Adobe Illustrator 22.0.0, SVG Export Plug-In . SVG Version: 6.00 Build 0)  -->
<svg version="1.1" id="Forma_1_копия_13_1_" xmlns="http://www.w3.org/2000/svg" xmlns:xlink="http://www.w3.org/1999/xlink"
	 x="0px" y="0px" viewBox="0 0 11 12" style="enable-background:new 0 0 11 12;" xml:space="preserve">
<style type="text/css">
	.st0{fill-rule:evenodd;clip-rule:evenodd;fill:#A9B7C5;}
</style>
<g id="Forma_1_копия_13">
	<g>
		<path class="st0" d="M10.2,1.5H9.3V0.8C9.3,0.4,8.9,0,8.5,0h0C8,0,7.6,0.4,7.6,0.8v0.6H3.4V0.8C3.4,0.4,3,0,2.6,0h0
			C2.1,0,1.7,0.4,1.7,0.8v0.6H0.8C0.4,1.5,0,1.8,0,2.3v8.9C0,11.6,0.4,12,0.8,12h9.4c0.5,0,0.8-0.4,0.8-0.8V2.3
			C11,1.8,10.6,1.5,10.2,1.5z M9.6,10.7H1.4V4h8.3V10.7z M2.5,7h1.4C4,7,4.1,6.9,4.1,6.9V5.4c0-0.1-0.1-0.1-0.1-0.1H2.5
			c-0.1,0-0.1,0.1-0.1,0.1v1.4C2.4,6.9,2.4,7,2.5,7z M4.8,7h1.4c0.1,0,0.1-0.1,0.1-0.1V5.4c0-0.1-0.1-0.1-0.1-0.1H4.8
			c-0.1,0-0.1,0.1-0.1,0.1v1.4C4.7,6.9,4.7,7,4.8,7z M7.1,7h1.4c0.1,0,0.1-0.1,0.1-0.1V5.4c0-0.1-0.1-0.1-0.1-0.1H7.1
			C7,5.3,6.9,5.4,6.9,5.4v1.4C6.9,6.9,7,7,7.1,7z M2.5,9.3h1.4c0.1,0,0.1-0.1,0.1-0.1V7.7c0-0.1-0.1-0.1-0.1-0.1H2.5
			c-0.1,0-0.1,0.1-0.1,0.1v1.4C2.4,9.3,2.4,9.3,2.5,9.3z M4.8,9.3h1.4c0.1,0,0.1-0.1,0.1-0.1V7.7c0-0.1-0.1-0.1-0.1-0.1H4.8
			c-0.1,0-0.1,0.1-0.1,0.1v1.4C4.7,9.3,4.7,9.3,4.8,9.3z M7.1,9.3h1.4c0.1,0,0.1-0.1,0.1-0.1V7.7c0-0.1-0.1-0.1-0.1-0.1H7.1
			C7,7.6,6.9,7.7,6.9,7.7v1.4C6.9,9.3,7,9.3,7.1,9.3z"/>
	</g>
</g>
</svg>
