<?xml version="1.0" encoding="utf-8"?>
<!-- Generator: Adobe Illustrator 22.0.0, SVG Export Plug-In . SVG Version: 6.00 Build 0)  -->
<svg version="1.1" xmlns="http://www.w3.org/2000/svg" xmlns:xlink="http://www.w3.org/1999/xlink" x="0px" y="0px"
	 viewBox="0 0 14 14" style="enable-background:new 0 0 14 14;" xml:space="preserve">
<style type="text/css">
	.st0{enable-background:new    ;}
	.st1{fill-rule:evenodd;clip-rule:evenodd;fill:#F5F5F5;}
	.st2{fill:#CCCCCC;}
	.st3{fill-rule:evenodd;clip-rule:evenodd;fill:#C72526;}
</style>
<g id="Прямоугольник_x2C__скругл._углы_12_1_" class="st0">
	<g id="Прямоугольник_x2C__скругл._углы_12">
		<g>
			<path class="st1" d="M3.4,13.5c-1.6,0-2.9-1.3-2.9-2.9V3.4c0-1.6,1.3-2.9,2.9-2.9h7.2c1.6,0,2.9,1.3,2.9,2.9v7.2
				c0,1.6-1.3,2.9-2.9,2.9H3.4z"/>
		</g>
		<g>
			<path class="st2" d="M10.6,1C11.9,1,13,2.1,13,3.4v7.2c0,1.3-1.1,2.4-2.4,2.4H3.4C2.1,13,1,11.9,1,10.6V3.4C1,2.1,2.1,1,3.4,1
				H10.6 M10.6,0H3.4C1.5,0,0,1.5,0,3.4v7.2C0,12.5,1.5,14,3.4,14h7.2c1.9,0,3.4-1.5,3.4-3.4V3.4C14,1.5,12.5,0,10.6,0L10.6,0z"/>
		</g>
	</g>
</g>
<g id="Прямоугольник_x2C__скругл._углы_10_копия_3_kопировать_1_" class="st0">
	<g id="Прямоугольник_x2C__скругл._углы_10_копия_3_kопировать">
		<g>
			<path class="st3" d="M7.9,7l2.9-2.9c0.3-0.3,0.3-0.7,0-1c-0.3-0.3-0.7-0.3-1,0L7,6L4.1,3.2c-0.3-0.3-0.7-0.3-1,0
				c-0.3,0.3-0.3,0.7,0,1L6,7L3.2,9.9c-0.3,0.3-0.3,0.7,0,1c0.3,0.3,0.7,0.3,1,0L7,8l2.9,2.9c0.3,0.3,0.7,0.3,1,0
				c0.3-0.3,0.3-0.7,0-1L7.9,7z"/>
		</g>
	</g>
</g>
</svg>
