<svg xmlns="http://www.w3.org/2000/svg" width="15" height="16" viewBox="0 0 15 16"><g><g><path fill="#334566" d="M5.419 8.825v1.267c0 .2-.156.363-.348.363H3.856a.356.356 0 0 1-.348-.363V8.825c0-.2.155-.362.348-.362H5.07c.192 0 .348.162.348.362zm3.036 1.267c0 .2-.155.363-.347.363H6.892a.356.356 0 0 1-.348-.363V8.825c0-.2.156-.362.348-.362h1.216c.192 0 .347.162.347.362zm3.037 0c0 .2-.156.363-.348.363H9.93a.356.356 0 0 1-.348-.363V8.825c0-.2.156-.362.348-.362h1.215c.192 0 .348.162.348.362zm-6.073 1.9v1.268c0 .2-.156.363-.348.363H3.856a.356.356 0 0 1-.348-.363v-1.268c0-.2.155-.363.348-.363H5.07c.192 0 .348.163.348.363zm3.036 1.268c0 .2-.155.363-.347.363H6.892a.356.356 0 0 1-.348-.363v-1.268c0-.2.156-.363.348-.363h1.216c.192 0 .347.163.347.363zm3.037-1.268v1.268c0 .2-.156.363-.348.363H9.93a.356.356 0 0 1-.348-.363v-1.268c0-.2.156-.363.348-.363h1.215c.192 0 .348.163.348.363zM15 3.212v11.344c0 .79-.617 1.442-1.375 1.442H1.375c-.76 0-1.375-.65-1.375-1.442V3.212c0-.777.602-1.41 1.335-1.433v1.936c0 .875.68 1.58 1.519 1.58h.958c.839 0 1.528-.705 1.528-1.58V1.772h4.32v1.943c0 .875.689 1.58 1.528 1.58h.958c.838 0 1.519-.705 1.519-1.58V1.78c.733.023 1.335.656 1.335 1.433zM13.22 13.85V7.99a.608.608 0 0 0-.595-.62H2.348a.608.608 0 0 0-.594.62v5.859c0 .342.266.62.594.62h10.277a.607.607 0 0 0 .595-.62zM2.33 3.715V.54c0-.3.233-.543.52-.543H3.8c.287 0 .52.243.52.543v3.174c0 .3-.233.542-.52.542H2.85a.532.532 0 0 1-.521-.542zm8.324 0V.54c0-.3.234-.543.521-.543h.948c.288 0 .52.243.52.543v3.174c0 .3-.232.542-.52.542h-.948a.532.532 0 0 1-.52-.542z"/></g></g></svg>