<svg xmlns="http://www.w3.org/2000/svg" width="30" height="30" viewBox="0 0 30 30"><defs><clipPath id="oggxa"><path fill="#fff" d="M25.605 4.393c5.862 5.862 5.862 15.348 0 21.21-5.861 5.861-15.348 5.86-21.209 0-5.862-5.862-5.861-15.349 0-21.21 5.862-5.862 15.348-5.86 21.21 0zm-1.413 1.414C19.124.739 10.878.739 5.81 5.807c-5.068 5.068-5.068 13.314 0 18.382 5.068 5.067 13.314 5.067 18.382 0 5.067-5.068 5.067-13.314 0-18.382zm-4.322 5.052l1.112 9.005a1 1 0 0 1-1.115 1.115l-9.005-1.112a1 1 0 0 1-.585-1.7l1.985-1.985L8.05 11.97a1 1 0 0 1 0-1.414l2.51-2.51a1 1 0 0 1 1.413 0l4.213 4.213 1.985-1.985c.588-.589 1.597-.239 1.699.585zm-1.733 2.277l-1.244 1.244a1 1 0 0 1-1.414 0l-4.213-4.212-1.095 1.096 4.212 4.212a1 1 0 0 1 0 1.414l-1.244 1.243 5.702.705z"/></clipPath></defs><g><g><path fill="#00abec" d="M25.605 4.393c5.862 5.862 5.862 15.348 0 21.21-5.861 5.861-15.348 5.86-21.209 0-5.862-5.862-5.861-15.349 0-21.21 5.862-5.862 15.348-5.86 21.21 0zm-1.413 1.414C19.124.739 10.878.739 5.81 5.807c-5.068 5.068-5.068 13.314 0 18.382 5.068 5.067 13.314 5.067 18.382 0 5.067-5.068 5.067-13.314 0-18.382zm-4.322 5.052l1.112 9.005a1 1 0 0 1-1.115 1.115l-9.005-1.112a1 1 0 0 1-.585-1.7l1.985-1.985L8.05 11.97a1 1 0 0 1 0-1.414l2.51-2.51a1 1 0 0 1 1.413 0l4.213 4.213 1.985-1.985c.588-.589 1.597-.239 1.699.585zm-1.733 2.277l-1.244 1.244a1 1 0 0 1-1.414 0l-4.213-4.212-1.095 1.096 4.212 4.212a1 1 0 0 1 0 1.414l-1.244 1.243 5.702.705z"/><path fill="none" stroke="#ededed" stroke-miterlimit="20" stroke-width=".8" d="M25.605 4.393c5.862 5.862 5.862 15.348 0 21.21-5.861 5.861-15.348 5.86-21.209 0-5.862-5.862-5.861-15.349 0-21.21 5.862-5.862 15.348-5.86 21.21 0zm-1.413 1.414C19.124.739 10.878.739 5.81 5.807c-5.068 5.068-5.068 13.314 0 18.382 5.068 5.067 13.314 5.067 18.382 0 5.067-5.068 5.067-13.314 0-18.382zm-4.322 5.052l1.112 9.005a1 1 0 0 1-1.115 1.115l-9.005-1.112a1 1 0 0 1-.585-1.7l1.985-1.985L8.05 11.97a1 1 0 0 1 0-1.414l2.51-2.51a1 1 0 0 1 1.413 0l4.213 4.213 1.985-1.985c.588-.589 1.597-.239 1.699.585zm-1.733 2.277l-1.244 1.244a1 1 0 0 1-1.414 0l-4.213-4.212-1.095 1.096 4.212 4.212a1 1 0 0 1 0 1.414l-1.244 1.243 5.702.705z" clip-path="url(&quot;#oggxa&quot;)"/></g></g></svg>