<svg xmlns="http://www.w3.org/2000/svg" width="30" height="30" viewBox="0 0 30 30"><defs><clipPath id="g7sna"><path fill="#fff" d="M4.394 4.393c5.862-5.862 15.349-5.861 21.21 0 5.861 5.861 5.86 15.348 0 21.21-5.862 5.861-15.348 5.86-21.21 0-5.861-5.862-5.86-15.349 0-21.21zm1.414 1.414c-5.067 5.068-5.067 13.313 0 18.381 5.068 5.068 13.314 5.068 18.382 0 5.068-5.068 5.067-13.313 0-18.38-5.068-5.069-13.314-5.069-18.382 0zm5.052 4.321l9.006-1.112a1 1 0 0 1 1.115 1.115l-1.113 9.006a1 1 0 0 1-1.699.584l-1.985-1.984-4.212 4.212a1 1 0 0 1-1.414 0l-2.51-2.51a1 1 0 0 1 0-1.414l4.212-4.212-1.985-1.985c-.588-.589-.239-1.598.585-1.7zm2.277 1.734l1.244 1.244a1 1 0 0 1 0 1.414l-4.212 4.212 1.096 1.096 4.212-4.213a1 1 0 0 1 1.414 0l1.244 1.244.704-5.701z"/></clipPath></defs><g><g><path fill="#00abec" d="M4.394 4.393c5.862-5.862 15.349-5.861 21.21 0 5.861 5.861 5.86 15.348 0 21.21-5.862 5.861-15.348 5.86-21.21 0-5.861-5.862-5.86-15.349 0-21.21zm1.414 1.414c-5.067 5.068-5.067 13.313 0 18.381 5.068 5.068 13.314 5.068 18.382 0 5.068-5.068 5.067-13.313 0-18.38-5.068-5.069-13.314-5.069-18.382 0zm5.052 4.321l9.006-1.112a1 1 0 0 1 1.115 1.115l-1.113 9.006a1 1 0 0 1-1.699.584l-1.985-1.984-4.212 4.212a1 1 0 0 1-1.414 0l-2.51-2.51a1 1 0 0 1 0-1.414l4.212-4.212-1.985-1.985c-.588-.589-.239-1.598.585-1.7zm2.277 1.734l1.244 1.244a1 1 0 0 1 0 1.414l-4.212 4.212 1.096 1.096 4.212-4.213a1 1 0 0 1 1.414 0l1.244 1.244.704-5.701z"/><path fill="none" stroke="#ededed" stroke-miterlimit="20" stroke-width=".8" d="M4.394 4.393c5.862-5.862 15.349-5.861 21.21 0 5.861 5.861 5.86 15.348 0 21.21-5.862 5.861-15.348 5.86-21.21 0-5.861-5.862-5.86-15.349 0-21.21zm1.414 1.414c-5.067 5.068-5.067 13.313 0 18.381 5.068 5.068 13.314 5.068 18.382 0 5.068-5.068 5.067-13.313 0-18.38-5.068-5.069-13.314-5.069-18.382 0zm5.052 4.321l9.006-1.112a1 1 0 0 1 1.115 1.115l-1.113 9.006a1 1 0 0 1-1.699.584l-1.985-1.984-4.212 4.212a1 1 0 0 1-1.414 0l-2.51-2.51a1 1 0 0 1 0-1.414l4.212-4.212-1.985-1.985c-.588-.589-.239-1.598.585-1.7zm2.277 1.734l1.244 1.244a1 1 0 0 1 0 1.414l-4.212 4.212 1.096 1.096 4.212-4.213a1 1 0 0 1 1.414 0l1.244 1.244.704-5.701z" clip-path="url(&quot;#g7sna&quot;)"/></g></g></svg>