<?xml version="1.0" encoding="utf-8"?>
<!-- Generator: Adobe Illustrator 22.0.0, SVG Export Plug-In . SVG Version: 6.00 Build 0)  -->
<svg version="1.1" id="Слой_1" xmlns="http://www.w3.org/2000/svg" xmlns:xlink="http://www.w3.org/1999/xlink" x="0px" y="0px"
	 viewBox="0 0 371.1 62.9" style="enable-background:new 0 0 371.1 62.9;" xml:space="preserve">
<style type="text/css">
	.st0{display:none;fill:#343B47;}
	.st1{display:none;fill:#8E8E8E;}
	.st2{display:none;}
	.st3{display:inline;}
	.st4{fill:url(#SVGID_1_);}
	.st5{fill:url(#SVGID_2_);}
	.st6{fill:url(#SVGID_3_);}
	.st7{fill:url(#SVGID_4_);}
	.st8{fill:url(#SVGID_5_);}
	.st9{fill:url(#SVGID_6_);}
	.st10{fill:url(#SVGID_7_);}
	.st11{fill:url(#SVGID_8_);}
	.st12{fill:url(#SVGID_9_);}
	.st13{fill:url(#SVGID_10_);}
	.st14{fill:url(#SVGID_11_);}
	.st15{fill:url(#SVGID_12_);}
	.st16{fill:#6B7285;}
	.st17{fill:#FFFFFF;}
	.st18{fill:url(#SVGID_13_);}
	.st19{fill:url(#SVGID_14_);}
	.st20{fill:url(#SVGID_15_);}
	.st21{fill:url(#SVGID_16_);}
	.st22{fill:url(#SVGID_17_);}
	.st23{fill:url(#SVGID_18_);}
	.st24{fill:url(#SVGID_19_);}
	.st25{fill:url(#SVGID_20_);}
	.st26{fill:url(#SVGID_21_);}
	.st27{fill:url(#SVGID_22_);}
	.st28{fill:url(#SVGID_23_);}
	.st29{fill:url(#SVGID_24_);}
	.st30{fill:url(#SVGID_25_);}
	.st31{fill:url(#SVGID_26_);}
	.st32{display:inline;fill:#343B47;}
	.st33{fill:url(#SVGID_27_);}
	.st34{fill:url(#SVGID_28_);}
	.st35{fill:#343B47;}
</style>
<rect x="-35.9" y="267.4" class="st0" width="1189.8" height="297.6"/>
<rect x="560.3" y="12.2" class="st1" width="1.4" height="510.2"/>
<g class="st2">
	<g class="st3">
		<g>
			<g>
				<linearGradient id="SVGID_1_" gradientUnits="userSpaceOnUse" x1="185.7756" y1="92.3789" x2="200.7712" y2="124.5371">
					<stop  offset="0" style="stop-color:#3660C2"/>
					<stop  offset="0.4026" style="stop-color:#365FC0"/>
					<stop  offset="1" style="stop-color:#274585"/>
				</linearGradient>
				<path class="st4" d="M200.3,100.9l0,0.2l7.5-1.7l-0.1-0.2c-2-6.1-6.4-9.2-13.2-9.2c-3.9,0-7.1,1.1-9.3,3.4
					c-2.2,2.3-3.4,4.9-3.4,7.9c0,1.8,0.4,3.5,1.3,4.9c0.9,1.4,2,2.5,3.5,3.3c1.4,0.8,3.4,1.5,5.8,2.1c2.6,0.7,4.3,1.3,5,1.8
					c0.7,0.5,1,1.2,1,2.3c0,1.1-0.5,2-1.4,2.8c-0.9,0.7-2.3,1.1-4,1.1c-3.9,0-6.1-1.6-6.9-5l0-0.2l-7.8,1.1l0,0.2
					c0.6,3.6,2.2,6.3,4.8,8c2.5,1.8,5.8,2.7,9.6,2.7c4.5,0,8-1.1,10.4-3.3c2.4-2.2,3.7-5,3.7-8.3c0-2.1-0.4-3.8-1.3-5.3
					c-0.9-1.4-2.2-2.6-3.8-3.4c-1.6-0.8-3.9-1.6-6.7-2.3c-1.9-0.5-3.3-1-3.9-1.5c-0.7-0.5-1-1.2-1-2.1c0-0.9,0.4-1.7,1.2-2.4h0
					c0.8-0.7,2-1,3.4-1C197.6,96.7,199.5,98.1,200.3,100.9z"/>
				<linearGradient id="SVGID_2_" gradientUnits="userSpaceOnUse" x1="222.1826" y1="87.4231" x2="241.4488" y2="128.7394">
					<stop  offset="0" style="stop-color:#3660C2"/>
					<stop  offset="0.4026" style="stop-color:#365FC0"/>
					<stop  offset="1" style="stop-color:#274585"/>
				</linearGradient>
				<polygon class="st5" points="241,90.5 231,111.4 228,90.5 215.5,90.5 209.7,125.6 216.6,125.6 221.3,97.1 225.8,125.5 
					225.8,125.6 230.7,125.6 244.3,97.5 239.6,125.6 248.1,125.6 254,90.5 				"/>
				<linearGradient id="SVGID_3_" gradientUnits="userSpaceOnUse" x1="258.9944" y1="94.9968" x2="275.2433" y2="129.8428">
					<stop  offset="0" style="stop-color:#3660C2"/>
					<stop  offset="0.4026" style="stop-color:#365FC0"/>
					<stop  offset="1" style="stop-color:#274585"/>
				</linearGradient>
				<path class="st6" d="M268.6,90.5l-16.7,35.1h7.9l3.3-7.6h11.4l1.1,7.6h8.6l-5.9-35.1H268.6z M265.9,111.6l5.8-13.1l1.9,13.1
					H265.9z"/>
				<linearGradient id="SVGID_4_" gradientUnits="userSpaceOnUse" x1="293.3366" y1="90.4468" x2="310.8765" y2="128.0613">
					<stop  offset="0" style="stop-color:#3660C2"/>
					<stop  offset="0.4026" style="stop-color:#365FC0"/>
					<stop  offset="1" style="stop-color:#274585"/>
				</linearGradient>
				<path class="st7" d="M313.7,91.6L313.7,91.6c-1.8-0.7-4.3-1.1-7.6-1.1h-13l-5.8,34.9l0,0.2h8.1l2.3-13.8h6.2l3.6,13.8h8.5
					l-4.3-15.1c2.7-0.7,4.7-2,5.9-3.9c1.2-1.9,1.8-3.8,1.8-5.9c0-1.9-0.5-3.7-1.5-5.5C316.9,93.6,315.5,92.3,313.7,91.6z
					 M310.2,103.6c-0.6,0.7-1.3,1.2-2.2,1.5c-0.9,0.3-2.4,0.4-4.3,0.4h-4.9l1.4-8.5h5.1c2.1,0,3.6,0.3,4.5,0.9
					c0.9,0.6,1.3,1.6,1.3,3C311.1,101.9,310.8,102.8,310.2,103.6z"/>
				<linearGradient id="SVGID_5_" gradientUnits="userSpaceOnUse" x1="328.6829" y1="88.1478" x2="344.1396" y2="121.2948">
					<stop  offset="0" style="stop-color:#3660C2"/>
					<stop  offset="0.4026" style="stop-color:#365FC0"/>
					<stop  offset="1" style="stop-color:#274585"/>
				</linearGradient>
				<polygon class="st8" points="349.5,90.5 323.6,90.5 322.4,97.5 331.2,97.5 326.5,125.6 334.8,125.6 339.5,97.5 348.3,97.5 				
					"/>
				<linearGradient id="SVGID_6_" gradientUnits="userSpaceOnUse" x1="347.7577" y1="107.9293" x2="352.0925" y2="117.2252">
					<stop  offset="0" style="stop-color:#3660C2"/>
					<stop  offset="0.4026" style="stop-color:#365FC0"/>
					<stop  offset="1" style="stop-color:#274585"/>
				</linearGradient>
				<polygon class="st9" points="344.2,109.6 343.2,115.6 355.6,115.6 356.6,109.6 				"/>
			</g>
			<linearGradient id="SVGID_7_" gradientUnits="userSpaceOnUse" x1="368.6251" y1="89.5491" x2="377.5689" y2="122.928">
				<stop  offset="0.2359" style="stop-color:#79C22E"/>
				<stop  offset="0.9026" style="stop-color:#64A22E"/>
			</linearGradient>
			<path class="st10" d="M389.2,106c0.7-1.8,1.1-3.5,1.1-5.3c0-2.4-0.6-4.5-1.8-6.1c-1.2-1.7-2.7-2.8-4.4-3.3
				c-1.7-0.5-3.9-0.8-6.6-0.8H365l-5.8,34.9l0,0.2h8.3l2.2-13h7.2c2.3,0,4.1-0.2,5.3-0.5c1.2-0.3,2.5-1,3.8-1.9
				C387.4,109.2,388.5,107.8,389.2,106z M380.9,104.8c-0.9,0.9-2.4,1.4-4.4,1.4h-5.8l1.5-9.1h4c2.5,0,4.2,0.4,4.9,1.3
				c0.7,0.9,1.1,1.9,1.1,2.9C382.3,102.6,381.8,103.8,380.9,104.8z"/>
			<linearGradient id="SVGID_8_" gradientUnits="userSpaceOnUse" x1="394.3205" y1="92.5737" x2="404.1485" y2="129.2523">
				<stop  offset="0.2359" style="stop-color:#79C22E"/>
				<stop  offset="0.9026" style="stop-color:#64A22E"/>
			</linearGradient>
			<path class="st11" d="M402,90.5l-16.7,35.1h7.9l3.3-7.6h11.4l1.1,7.6h8.6l-5.9-35.1H402z M399.3,111.6l5.8-13.1l1.9,13.1H399.3z"
				/>
			<linearGradient id="SVGID_9_" gradientUnits="userSpaceOnUse" x1="431.0063" y1="87.0184" x2="440.7632" y2="123.4315">
				<stop  offset="0.2359" style="stop-color:#79C22E"/>
				<stop  offset="0.9026" style="stop-color:#64A22E"/>
			</linearGradient>
			<polygon class="st12" points="441.1,90.5 432.2,104.1 426.9,90.5 417.9,90.5 426.7,110.9 424.2,125.6 432.5,125.6 435,110.9 
				449.1,90.5 			"/>
			<linearGradient id="SVGID_10_" gradientUnits="userSpaceOnUse" x1="455.3753" y1="90.9473" x2="464.6735" y2="125.6489">
				<stop  offset="0.2359" style="stop-color:#79C22E"/>
				<stop  offset="0.9026" style="stop-color:#64A22E"/>
			</linearGradient>
			<path class="st13" d="M468.4,106c-1.6-0.8-3.9-1.6-6.7-2.3c-1.9-0.5-3.3-1-3.9-1.5c-0.7-0.5-1-1.2-1-2.1c0-0.9,0.4-1.7,1.2-2.4
				c0.8-0.7,2-1,3.4-1c3.1,0,5,1.4,5.8,4.2l0,0.2l7.5-1.7l-0.1-0.2c-2-6.1-6.4-9.2-13.2-9.2c-3.9,0-7.1,1.1-9.3,3.4
				c-2.2,2.3-3.4,4.9-3.4,7.9c0,1.8,0.4,3.5,1.3,4.9c0.9,1.4,2,2.5,3.5,3.3c1.4,0.8,3.4,1.5,5.8,2.1c2.6,0.7,4.3,1.3,5,1.8
				c0.7,0.5,1,1.2,1,2.3c0,1.1-0.5,2-1.4,2.8c-0.9,0.7-2.3,1.1-4,1.1c-3.9,0-6.1-1.6-6.9-5l0-0.2l-7.8,1.1l0,0.2
				c0.6,3.6,2.2,6.3,4.8,8c2.5,1.8,5.8,2.7,9.6,2.7c4.5,0,8-1.1,10.4-3.3c2.4-2.2,3.7-5,3.7-8.3c0-2.1-0.4-3.8-1.3-5.3
				C471.3,107.9,470,106.8,468.4,106z"/>
		</g>
		<g>
			<linearGradient id="SVGID_11_" gradientUnits="userSpaceOnUse" x1="125.9502" y1="77.7527" x2="139.0882" y2="105.9273">
				<stop  offset="0" style="stop-color:#3660C2"/>
				<stop  offset="0.4026" style="stop-color:#365FC0"/>
				<stop  offset="1" style="stop-color:#274585"/>
			</linearGradient>
			<path class="st14" d="M121.5,102.3c-3.4,0-5-1.4-4-4.8l0.8-2.8c1.1-2.9,2.9-3.7,5.7-4h24.6c2.7,0,3.7,1.3,3,4.1l-0.7,2.4h4.7
				c3.1,0.2,5.4-0.9,6.5-4.1l0.9-3.5c1.3-5.1-1-7.8-7.6-7.8h-35.1c-5.2,0-8.7,2.4-10.2,6.8l-0.6,2.1l0,0l-3.1,10.6
				c-1.4,5.2-0.6,9.9,6.3,9.9h1.4c5.9,0.1,10.6-1.5,15.4-4c2.3-1.2,9.2-4.8,9.2-4.8H121.5z"/>
			<linearGradient id="SVGID_12_" gradientUnits="userSpaceOnUse" x1="130.4076" y1="107.3313" x2="138.5084" y2="137.5639">
				<stop  offset="0.2359" style="stop-color:#79C22E"/>
				<stop  offset="0.9026" style="stop-color:#64A22E"/>
			</linearGradient>
			<path class="st15" d="M156.9,102.3l-4.3,0c-4.8,0-8.2,1.1-14.5,4.2l-8.9,4.7h19.8c5.3,0,6.3,1.7,5.4,5.2
				c-0.1,0.5-0.5,1.8-0.5,1.8c-1,3.2-2.6,4.6-7.8,4.5h-27.4c-7.5,0.1-10.4,2.6-12.6,8.9l-1.9,6.6c-1.1,4.3,1.2,6.2,6.4,6.2h2.4
				l1.4-4.9c1.5-5.6,3.1-7.9,8.8-7.9h28.1c6.3-0.3,9-1.5,10.4-6l3.7-12.5C167.1,105.9,165.4,102.2,156.9,102.3z"/>
		</g>
	</g>
	<g class="st3">
		<path class="st16" d="M273.9,152.3h-2.3l2.7-17.3h2.3L273.9,152.3z"/>
		<path class="st16" d="M291,152.3h-1.4l-6.8-14l-2.2,14h-2.1l2.7-17.3h2.3l6.2,12.7l2-12.7h2.1L291,152.3z"/>
		<path class="st16" d="M306.1,138.1c-1.1-0.8-2.3-1.4-3.8-1.4c-2,0-2.8,1.2-2.8,2.6c0,1.1,0.7,1.9,2.7,3.1c2.8,1.7,3.7,3,3.7,5
			c0,3.4-2.7,5.2-5.7,5.2c-2,0-3.9-0.7-5.1-1.5l0.7-2.2c1.2,0.9,2.9,1.7,4.5,1.7c1.8,0,3.2-1.1,3.2-2.9c0-1.3-0.6-2-2.5-3.1
			c-2.7-1.6-3.9-2.8-3.9-4.9c0-2.8,2.2-4.9,5.4-4.9c1.7,0,3.3,0.6,4.2,1.2L306.1,138.1z"/>
		<path class="st16" d="M317,137.1l-2.4,15.2h-2.3l2.4-15.2h-5.1l0.3-2.1h12.4v2.1H317z"/>
		<path class="st16" d="M331.4,147.1h-6.4l-2.6,5.2h-2.4l9-17.4h2.3l3.4,17l-2.3,0.5L331.4,147.1z M326,145.1h5l-1.4-7.4L326,145.1z
			"/>
		<path class="st16" d="M350.2,152.3h-1.4l-6.8-14l-2.2,14h-2.1l2.7-17.3h2.3l6.2,12.7l2-12.7h2.1L350.2,152.3z"/>
		<path class="st16" d="M363.4,137.1l-2.4,15.2h-2.3l2.4-15.2H356l0.3-2.1h12.4v2.1H363.4z"/>
		<path class="st16" d="M386.1,137.1H380l-0.9,5.4h4.7v2.1h-5l-1.2,7.7h-2.3L378,135h8.4L386.1,137.1z"/>
		<path class="st16" d="M387.3,145.1c0-3.3,1.2-6.2,3.1-8.1c1.4-1.4,3.2-2.2,5.4-2.2c4.3,0,6.7,3.1,6.7,7.6c0,3.3-1.2,6.2-3.1,8.1
			c-1.4,1.4-3.2,2.2-5.4,2.2C389.6,152.6,387.3,149.5,387.3,145.1z M397.5,149.1c1.5-1.5,2.5-4,2.5-6.8c0-3.5-1.5-5.6-4.4-5.6
			c-1.3,0-2.6,0.6-3.5,1.6c-1.5,1.5-2.5,4-2.5,6.8c0,3.5,1.5,5.6,4.4,5.6C395.3,150.7,396.6,150.1,397.5,149.1z"/>
		<path class="st16" d="M412.2,144.8l3.9,7.1l-2.4,0.5l-4-7.4h-1.5l-1.2,7.3h-2.3l2.7-17.3h3.5c3.7,0,5.8,1.4,5.8,4.4
			C416.7,142.5,414.7,144.3,412.2,144.8z M411.1,137.1h-1.6l-1,6h1.8c2.7,0,4.1-1.4,4.1-3.4C414.4,138.1,413.5,137.1,411.1,137.1z"
			/>
		<path class="st16" d="M432.9,145.5l-1.1,6.9h-2.3l1.1-6.9l-4.2-10.1l2.4-0.5l3.3,8.4l5.7-8.3h2.7L432.9,145.5z"/>
		<path class="st16" d="M440.4,145.1c0-3.3,1.2-6.2,3.1-8.1c1.4-1.4,3.2-2.2,5.4-2.2c4.3,0,6.7,3.1,6.7,7.6c0,3.3-1.2,6.2-3.1,8.1
			c-1.4,1.4-3.2,2.2-5.4,2.2C442.7,152.6,440.4,149.5,440.4,145.1z M450.6,149.1c1.5-1.5,2.5-4,2.5-6.8c0-3.5-1.5-5.6-4.4-5.6
			c-1.3,0-2.6,0.6-3.5,1.6c-1.5,1.5-2.5,4-2.5,6.8c0,3.5,1.5,5.6,4.4,5.6C448.4,150.7,449.7,150.1,450.6,149.1z"/>
		<path class="st16" d="M471.2,146.6c-0.7,4.2-3.4,6.1-6.8,6.1c-3.5,0-5.8-1.8-5.8-5.4c0-0.5,0.1-1.3,0.2-1.9l1.6-10.3h2.3
			l-1.7,10.4c-0.1,0.5-0.1,1.1-0.1,1.5c0,2.3,1.2,3.6,3.6,3.6c2.5,0,4-1.6,4.4-4.5l1.8-11h2.3L471.2,146.6z"/>
	</g>
</g>
<g class="st2">
	<g class="st3">
		<g>
			<g>
				<path class="st17" d="M200.2,398.6l0,0.2l7.5-1.7l-0.1-0.2c-2-6.1-6.5-9.2-13.3-9.2c-3.9,0-7.1,1.2-9.4,3.4
					c-2.3,2.3-3.4,4.9-3.4,7.9c0,1.8,0.4,3.5,1.3,4.9c0.9,1.4,2,2.5,3.5,3.3c1.4,0.8,3.4,1.5,5.8,2.1c2.6,0.7,4.3,1.3,5,1.8
					c0.7,0.5,1,1.2,1,2.3c0,1.1-0.5,2-1.4,2.8c-0.9,0.7-2.3,1.1-4,1.1c-3.9,0-6.2-1.7-6.9-5.1l0-0.2l-7.8,1.1l0,0.2
					c0.6,3.6,2.2,6.3,4.8,8.1c2.5,1.8,5.8,2.7,9.6,2.7c4.5,0,8-1.1,10.4-3.4c2.4-2.2,3.7-5,3.7-8.4c0-2.1-0.5-3.8-1.3-5.3
					c-0.9-1.4-2.2-2.6-3.8-3.4c-1.6-0.8-3.9-1.6-6.8-2.3c-1.9-0.5-3.3-1-4-1.5c-0.7-0.5-1-1.2-1-2.1c0-0.9,0.4-1.7,1.2-2.4h0
					c0.8-0.7,2-1,3.4-1C197.5,394.4,199.4,395.8,200.2,398.6z"/>
				<polygon class="st17" points="241.1,388.2 231.1,409.1 228,388.2 215.5,388.2 209.6,423.4 216.6,423.4 221.4,394.8 225.9,423.3 
					225.9,423.4 230.8,423.4 244.4,395.2 239.7,423.4 248.2,423.4 254.1,388.2 				"/>
				<path class="st17" d="M268.8,388.2L252,423.4h7.9l3.4-7.7h11.5l1.1,7.7h8.7l-5.9-35.2H268.8z M266.1,409.3l5.8-13.2l1.9,13.2
					H266.1z"/>
				<path class="st17" d="M314.1,389.3L314.1,389.3c-1.8-0.7-4.3-1.1-7.6-1.1h-13.1l-5.9,35.1l0,0.2h8.2l2.3-13.9h6.2l3.7,13.9h8.5
					l-4.4-15.2c2.7-0.7,4.7-2.1,5.9-3.9c1.2-1.9,1.9-3.8,1.9-5.9c0-1.9-0.5-3.8-1.5-5.5C317.3,391.2,315.9,390,314.1,389.3z
					 M310.6,401.3c-0.6,0.7-1.3,1.2-2.2,1.5c-0.9,0.3-2.4,0.4-4.4,0.4h-5l1.4-8.5h5.1c2.1,0,3.6,0.3,4.5,0.9c0.9,0.6,1.3,1.6,1.3,3
					C311.5,399.7,311.2,400.6,310.6,401.3z"/>
				<polygon class="st17" points="350,388.2 324,388.2 322.9,395.2 331.6,395.2 326.9,423.4 335.3,423.4 340,395.2 348.8,395.2 				
					"/>
				<polygon class="st17" points="344.7,407.3 343.7,413.3 356.2,413.3 357.2,407.3 				"/>
			</g>
			<path class="st17" d="M389.9,403.8c0.7-1.8,1.1-3.6,1.1-5.3c0-2.4-0.6-4.5-1.8-6.1c-1.2-1.7-2.7-2.8-4.4-3.3
				c-1.7-0.5-3.9-0.8-6.6-0.8h-12.6l-5.9,35.1l0,0.2h8.4l2.2-13.1h7.3c2.4,0,4.1-0.2,5.3-0.5c1.2-0.3,2.5-1,3.9-2
				C388.1,406.9,389.2,405.5,389.9,403.8z M381.5,402.5c-0.9,0.9-2.4,1.4-4.4,1.4h-5.8l1.5-9.1h4c2.5,0,4.2,0.4,4.9,1.3
				c0.7,0.9,1.1,1.9,1.1,2.9C382.9,400.4,382.5,401.5,381.5,402.5z"/>
			<path class="st17" d="M402.7,388.2l-16.8,35.2h7.9l3.4-7.7h11.5l1.1,7.7h8.7l-5.9-35.2H402.7z M400,409.3l5.8-13.2l1.9,13.2H400z
				"/>
			<polygon class="st17" points="442,388.2 433,401.8 427.8,388.2 418.7,388.2 427.5,408.6 425,423.4 433.4,423.4 435.9,408.6 
				450,388.2 			"/>
			<path class="st17" d="M469.3,403.7c-1.6-0.8-3.9-1.6-6.8-2.3c-1.9-0.5-3.3-1-4-1.5c-0.7-0.5-1-1.2-1-2.1c0-0.9,0.4-1.7,1.2-2.4
				c0.8-0.7,2-1,3.4-1c3.1,0,5,1.4,5.8,4.2l0,0.2l7.5-1.7l-0.1-0.2c-2-6.1-6.5-9.2-13.3-9.2c-3.9,0-7.1,1.2-9.4,3.4
				c-2.3,2.3-3.4,4.9-3.4,7.9c0,1.8,0.4,3.5,1.3,4.9c0.9,1.4,2,2.5,3.5,3.3c1.4,0.8,3.4,1.5,5.8,2.1c2.6,0.7,4.3,1.3,5,1.8
				c0.7,0.5,1,1.2,1,2.3c0,1.1-0.5,2-1.4,2.8c-0.9,0.7-2.3,1.1-4,1.1c-3.9,0-6.2-1.7-6.9-5.1l0-0.2l-7.8,1.1l0,0.2
				c0.6,3.6,2.2,6.3,4.8,8.1c2.5,1.8,5.8,2.7,9.6,2.7c4.5,0,8-1.1,10.4-3.4c2.4-2.2,3.7-5,3.7-8.4c0-2.1-0.5-3.8-1.3-5.3
				C472.3,405.6,471,404.5,469.3,403.7z"/>
		</g>
		<g>
			<path class="st17" d="M273.7,449.9h-2.3l2.7-17.4h2.3L273.7,449.9z"/>
			<path class="st17" d="M291,449.9h-1.4l-6.8-14.1l-2.2,14.1h-2.1l2.7-17.4h2.3l6.2,12.8l2-12.8h2.1L291,449.9z"/>
			<path class="st17" d="M306.1,435.7c-1.1-0.8-2.3-1.4-3.8-1.4c-2,0-2.8,1.2-2.8,2.6c0,1.1,0.7,1.9,2.7,3.1c2.8,1.7,3.7,3.1,3.7,5
				c0,3.5-2.7,5.2-5.7,5.2c-2,0-3.9-0.7-5.1-1.5l0.7-2.2c1.2,0.9,2.9,1.7,4.6,1.7c1.8,0,3.2-1.1,3.2-3c0-1.3-0.6-2-2.5-3.1
				c-2.7-1.6-3.9-2.8-3.9-4.9c0-2.8,2.2-4.9,5.4-4.9c1.7,0,3.3,0.6,4.2,1.2L306.1,435.7z"/>
			<path class="st17" d="M317.1,434.6l-2.4,15.3h-2.3l2.4-15.3h-5.2l0.3-2.1h12.5v2.1H317.1z"/>
			<path class="st17" d="M331.6,444.7h-6.5l-2.6,5.2h-2.4l9-17.5h2.3l3.4,17.1l-2.3,0.5L331.6,444.7z M326.1,442.7h5.1l-1.4-7.4
				L326.1,442.7z"/>
			<path class="st17" d="M350.6,449.9h-1.4l-6.8-14.1l-2.2,14.1H338l2.7-17.4h2.3l6.2,12.8l2-12.8h2.1L350.6,449.9z"/>
			<path class="st17" d="M363.9,434.6l-2.4,15.3h-2.3l2.4-15.3h-5.2l0.3-2.1h12.5v2.1H363.9z"/>
			<path class="st17" d="M386.7,434.7h-6.1l-0.9,5.4h4.7v2.1h-5.1l-1.2,7.8h-2.3l2.7-17.4h8.4L386.7,434.7z"/>
			<path class="st17" d="M387.9,442.7c0-3.3,1.2-6.3,3.1-8.2c1.4-1.4,3.2-2.2,5.4-2.2c4.4,0,6.7,3.2,6.7,7.6c0,3.3-1.2,6.3-3.1,8.2
				c-1.4,1.4-3.2,2.2-5.4,2.2C390.2,450.3,387.9,447.1,387.9,442.7z M398.2,446.7c1.5-1.5,2.5-4,2.5-6.9c0-3.5-1.5-5.6-4.4-5.6
				c-1.3,0-2.6,0.6-3.6,1.6c-1.5,1.5-2.5,4-2.5,6.9c0,3.5,1.5,5.6,4.4,5.6C396,448.3,397.2,447.7,398.2,446.7z"/>
			<path class="st17" d="M412.9,442.4l4,7.2l-2.4,0.5l-4-7.5H409l-1.2,7.3h-2.3l2.7-17.4h3.5c3.7,0,5.8,1.4,5.8,4.4
				C417.5,440.1,415.5,441.9,412.9,442.4z M411.8,434.6h-1.6l-1,6.1h1.8c2.7,0,4.1-1.4,4.1-3.4C415.2,435.6,414.3,434.6,411.8,434.6
				z"/>
			<path class="st17" d="M433.8,443l-1.1,6.9h-2.3l1.1-6.9l-4.2-10.2l2.4-0.5l3.3,8.5l5.7-8.3h2.7L433.8,443z"/>
			<path class="st17" d="M441.3,442.7c0-3.3,1.2-6.3,3.1-8.2c1.4-1.4,3.2-2.2,5.4-2.2c4.4,0,6.7,3.2,6.7,7.6c0,3.3-1.2,6.3-3.1,8.2
				c-1.4,1.4-3.2,2.2-5.4,2.2C443.7,450.3,441.3,447.1,441.3,442.7z M451.7,446.7c1.5-1.5,2.5-4,2.5-6.9c0-3.5-1.5-5.6-4.4-5.6
				c-1.3,0-2.6,0.6-3.6,1.6c-1.5,1.5-2.5,4-2.5,6.9c0,3.5,1.5,5.6,4.4,5.6C449.4,448.3,450.7,447.7,451.7,446.7z"/>
			<path class="st17" d="M472.3,444.1c-0.7,4.3-3.4,6.1-6.9,6.1c-3.5,0-5.8-1.8-5.8-5.5c0-0.5,0.1-1.3,0.2-1.9l1.6-10.4h2.3
				l-1.7,10.5c-0.1,0.5-0.1,1.1-0.1,1.5c0,2.3,1.2,3.6,3.6,3.6c2.5,0,4-1.6,4.4-4.5l1.8-11.1h2.3L472.3,444.1z"/>
		</g>
	</g>
	<g class="st3">
		<linearGradient id="SVGID_13_" gradientUnits="userSpaceOnUse" x1="125.6115" y1="375.506" x2="138.7495" y2="403.6806">
			<stop  offset="0" style="stop-color:#3660C2"/>
			<stop  offset="0.4026" style="stop-color:#365FC0"/>
			<stop  offset="1" style="stop-color:#274585"/>
		</linearGradient>
		<path class="st18" d="M121.2,400c-3.4,0-5-1.4-4-4.8l0.8-2.8c1.1-2.9,2.9-3.7,5.7-4h24.6c2.7,0,3.7,1.3,3,4.1l-0.7,2.4h4.7
			c3.1,0.2,5.4-0.9,6.5-4.1l0.9-3.5c1.3-5.1-1-7.8-7.6-7.8H120c-5.2,0-8.7,2.4-10.2,6.8l-0.6,2.1l0,0l-3.1,10.6
			c-1.4,5.2-0.6,9.9,6.3,9.9h1.4c5.9,0.1,10.6-1.5,15.4-4c2.3-1.2,9.2-4.8,9.2-4.8H121.2z"/>
		<linearGradient id="SVGID_14_" gradientUnits="userSpaceOnUse" x1="130.0689" y1="405.0847" x2="138.1697" y2="435.3172">
			<stop  offset="0.2359" style="stop-color:#79C22E"/>
			<stop  offset="0.9026" style="stop-color:#64A22E"/>
		</linearGradient>
		<path class="st19" d="M156.6,400l-4.3,0c-4.8,0-8.2,1.1-14.5,4.2l-8.9,4.7h19.8c5.3,0,6.3,1.7,5.4,5.2c-0.1,0.5-0.5,1.8-0.5,1.8
			c-1,3.2-2.6,4.6-7.8,4.5h-27.4c-7.5,0.1-10.4,2.6-12.6,8.9l-1.9,6.6c-1.1,4.3,1.2,6.2,6.4,6.2h2.4l1.4-4.9
			c1.5-5.6,3.1-7.9,8.8-7.9H151c6.3-0.3,9-1.5,10.4-6l3.7-12.5C166.7,403.7,165,399.9,156.6,400z"/>
	</g>
</g>
<g class="st2">
	<g class="st3">
		<g>
			<g>
				<linearGradient id="SVGID_15_" gradientUnits="userSpaceOnUse" x1="724.6736" y1="94.3112" x2="739.6692" y2="126.4694">
					<stop  offset="0" style="stop-color:#3660C2"/>
					<stop  offset="0.4026" style="stop-color:#365FC0"/>
					<stop  offset="1" style="stop-color:#274585"/>
				</linearGradient>
				<path class="st20" d="M739.2,102.9l0,0.2l7.5-1.7l-0.1-0.2c-2-6.1-6.4-9.2-13.2-9.2c-3.9,0-7.1,1.1-9.3,3.4
					c-2.2,2.3-3.4,4.9-3.4,7.9c0,1.8,0.4,3.5,1.3,4.9c0.9,1.4,2,2.5,3.5,3.3c1.4,0.8,3.4,1.5,5.8,2.1c2.6,0.7,4.3,1.3,5,1.8
					c0.7,0.5,1,1.2,1,2.3c0,1.1-0.5,2-1.4,2.8c-0.9,0.7-2.3,1.1-4,1.1c-3.9,0-6.1-1.6-6.9-5l0-0.2l-7.8,1.1l0,0.2
					c0.6,3.6,2.2,6.3,4.8,8c2.5,1.8,5.8,2.7,9.6,2.7c4.5,0,8-1.1,10.4-3.3c2.4-2.2,3.7-5,3.7-8.3c0-2.1-0.4-3.8-1.3-5.3
					c-0.9-1.4-2.2-2.6-3.8-3.4c-1.6-0.8-3.9-1.6-6.7-2.3c-1.9-0.5-3.3-1-3.9-1.5c-0.7-0.5-1-1.2-1-2.1c0-0.9,0.4-1.7,1.2-2.4h0
					c0.8-0.7,2-1,3.4-1C736.5,98.7,738.4,100,739.2,102.9z"/>
				<linearGradient id="SVGID_16_" gradientUnits="userSpaceOnUse" x1="761.0806" y1="89.3553" x2="780.3467" y2="130.6716">
					<stop  offset="0" style="stop-color:#3660C2"/>
					<stop  offset="0.4026" style="stop-color:#365FC0"/>
					<stop  offset="1" style="stop-color:#274585"/>
				</linearGradient>
				<polygon class="st21" points="779.9,92.5 769.9,113.3 766.9,92.5 754.4,92.5 748.6,127.6 755.5,127.6 760.2,99.1 764.7,127.4 
					764.7,127.6 769.6,127.6 783.2,99.4 778.5,127.6 787,127.6 792.9,92.5 				"/>
				<linearGradient id="SVGID_17_" gradientUnits="userSpaceOnUse" x1="797.8924" y1="96.9291" x2="814.1413" y2="131.7751">
					<stop  offset="0" style="stop-color:#3660C2"/>
					<stop  offset="0.4026" style="stop-color:#365FC0"/>
					<stop  offset="1" style="stop-color:#274585"/>
				</linearGradient>
				<path class="st22" d="M807.5,92.5l-16.7,35.1h7.9l3.3-7.6h11.4l1.1,7.6h8.6l-5.9-35.1H807.5z M804.8,113.5l5.8-13.1l1.9,13.1
					H804.8z"/>
				<linearGradient id="SVGID_18_" gradientUnits="userSpaceOnUse" x1="832.2346" y1="92.3791" x2="849.7745" y2="129.9935">
					<stop  offset="0" style="stop-color:#3660C2"/>
					<stop  offset="0.4026" style="stop-color:#365FC0"/>
					<stop  offset="1" style="stop-color:#274585"/>
				</linearGradient>
				<path class="st23" d="M852.6,93.5L852.6,93.5c-1.8-0.7-4.3-1.1-7.6-1.1h-13l-5.8,34.9l0,0.2h8.1l2.3-13.8h6.2l3.6,13.8h8.5
					l-4.3-15.1c2.7-0.7,4.7-2,5.9-3.9c1.2-1.9,1.8-3.8,1.8-5.9c0-1.9-0.5-3.7-1.5-5.5C855.8,95.5,854.4,94.2,852.6,93.5z
					 M849.1,105.5c-0.6,0.7-1.3,1.2-2.2,1.5c-0.9,0.3-2.4,0.4-4.3,0.4h-4.9l1.4-8.5h5.1c2.1,0,3.6,0.3,4.5,0.9
					c0.9,0.6,1.3,1.6,1.3,3C850,103.9,849.7,104.8,849.1,105.5z"/>
				<linearGradient id="SVGID_19_" gradientUnits="userSpaceOnUse" x1="867.5809" y1="90.0801" x2="883.0376" y2="123.227">
					<stop  offset="0" style="stop-color:#3660C2"/>
					<stop  offset="0.4026" style="stop-color:#365FC0"/>
					<stop  offset="1" style="stop-color:#274585"/>
				</linearGradient>
				<polygon class="st24" points="888.4,92.5 862.5,92.5 861.3,99.4 870.1,99.4 865.4,127.6 873.7,127.6 878.4,99.4 887.2,99.4 				
					"/>
				<linearGradient id="SVGID_20_" gradientUnits="userSpaceOnUse" x1="886.6557" y1="109.8615" x2="890.9905" y2="119.1575">
					<stop  offset="0" style="stop-color:#3660C2"/>
					<stop  offset="0.4026" style="stop-color:#365FC0"/>
					<stop  offset="1" style="stop-color:#274585"/>
				</linearGradient>
				<polygon class="st25" points="883.1,111.5 882.1,117.5 894.5,117.5 895.5,111.5 				"/>
			</g>
			<linearGradient id="SVGID_21_" gradientUnits="userSpaceOnUse" x1="907.5231" y1="91.4813" x2="916.4669" y2="124.8602">
				<stop  offset="0.2359" style="stop-color:#79C22E"/>
				<stop  offset="0.9026" style="stop-color:#64A22E"/>
			</linearGradient>
			<path class="st26" d="M928.1,108c0.7-1.8,1.1-3.5,1.1-5.3c0-2.4-0.6-4.5-1.8-6.1c-1.2-1.7-2.7-2.8-4.4-3.3
				c-1.7-0.5-3.9-0.8-6.6-0.8h-12.6l-5.8,34.9l0,0.2h8.3l2.2-13h7.2c2.3,0,4.1-0.2,5.3-0.5c1.2-0.3,2.5-1,3.8-1.9
				C926.3,111.1,927.4,109.7,928.1,108z M919.8,106.7c-0.9,0.9-2.4,1.4-4.4,1.4h-5.8l1.5-9.1h4c2.5,0,4.2,0.4,4.9,1.3
				c0.7,0.9,1.1,1.9,1.1,2.9C921.2,104.6,920.7,105.7,919.8,106.7z"/>
			<linearGradient id="SVGID_22_" gradientUnits="userSpaceOnUse" x1="933.2184" y1="94.506" x2="943.0464" y2="131.1846">
				<stop  offset="0.2359" style="stop-color:#79C22E"/>
				<stop  offset="0.9026" style="stop-color:#64A22E"/>
			</linearGradient>
			<path class="st27" d="M940.9,92.5l-16.7,35.1h7.9l3.3-7.6h11.4l1.1,7.6h8.6l-5.9-35.1H940.9z M938.2,113.5l5.8-13.1l1.9,13.1
				H938.2z"/>
			<linearGradient id="SVGID_23_" gradientUnits="userSpaceOnUse" x1="969.9043" y1="88.9507" x2="979.6611" y2="125.3638">
				<stop  offset="0.2359" style="stop-color:#79C22E"/>
				<stop  offset="0.9026" style="stop-color:#64A22E"/>
			</linearGradient>
			<polygon class="st28" points="980,92.5 971.1,106 965.8,92.5 956.8,92.5 965.6,112.8 963.1,127.6 971.4,127.6 973.9,112.8 
				988,92.5 			"/>
			<linearGradient id="SVGID_24_" gradientUnits="userSpaceOnUse" x1="994.2733" y1="92.8796" x2="1003.5715" y2="127.5811">
				<stop  offset="0.2359" style="stop-color:#79C22E"/>
				<stop  offset="0.9026" style="stop-color:#64A22E"/>
			</linearGradient>
			<path class="st29" d="M1007.3,107.9c-1.6-0.8-3.9-1.6-6.7-2.3c-1.9-0.5-3.3-1-3.9-1.5c-0.7-0.5-1-1.2-1-2.1
				c0-0.9,0.4-1.7,1.2-2.4c0.8-0.7,2-1,3.4-1c3.1,0,5,1.4,5.8,4.2l0,0.2l7.5-1.7l-0.1-0.2c-2-6.1-6.4-9.2-13.2-9.2
				c-3.9,0-7.1,1.1-9.3,3.4c-2.2,2.3-3.4,4.9-3.4,7.9c0,1.8,0.4,3.5,1.3,4.9c0.9,1.4,2,2.5,3.5,3.3c1.4,0.8,3.4,1.5,5.8,2.1
				c2.6,0.7,4.3,1.3,5,1.8c0.7,0.5,1,1.2,1,2.3c0,1.1-0.5,2-1.4,2.8c-0.9,0.7-2.3,1.1-4,1.1c-3.9,0-6.1-1.6-6.9-5l0-0.2l-7.8,1.1
				l0,0.2c0.6,3.6,2.2,6.3,4.8,8c2.5,1.8,5.8,2.7,9.6,2.7c4.5,0,8-1.1,10.4-3.3c2.4-2.2,3.7-5,3.7-8.3c0-2.1-0.4-3.8-1.3-5.3
				C1010.2,109.8,1008.9,108.7,1007.3,107.9z"/>
		</g>
		<g>
			<linearGradient id="SVGID_25_" gradientUnits="userSpaceOnUse" x1="664.8481" y1="79.685" x2="677.9861" y2="107.8595">
				<stop  offset="0" style="stop-color:#3660C2"/>
				<stop  offset="0.4026" style="stop-color:#365FC0"/>
				<stop  offset="1" style="stop-color:#274585"/>
			</linearGradient>
			<path class="st30" d="M660.4,104.2c-3.4,0-5-1.4-4-4.8l0.8-2.8c1.1-2.9,2.9-3.7,5.7-4h24.6c2.7,0,3.7,1.3,3,4.1l-0.7,2.4h4.7
				c3.1,0.2,5.4-0.9,6.5-4.1l0.9-3.5c1.3-5.1-1-7.8-7.6-7.8h-35.1c-5.2,0-8.7,2.4-10.2,6.8l-0.6,2.1v0l-3.1,10.6
				c-1.4,5.2-0.6,9.9,6.3,9.9l1.4,0c5.9,0.1,10.6-1.5,15.4-4c2.3-1.2,9.2-4.8,9.2-4.8H660.4z"/>
			<linearGradient id="SVGID_26_" gradientUnits="userSpaceOnUse" x1="669.3056" y1="109.2636" x2="677.4064" y2="139.4962">
				<stop  offset="0.2359" style="stop-color:#79C22E"/>
				<stop  offset="0.9026" style="stop-color:#64A22E"/>
			</linearGradient>
			<path class="st31" d="M695.8,104.2l-4.3,0c-4.8,0-8.3,1.1-14.5,4.2l-8.9,4.7h19.8c5.3,0,6.3,1.7,5.4,5.2
				c-0.1,0.5-0.5,1.8-0.5,1.8c-1,3.2-2.6,4.6-7.8,4.5h-27.4c-7.5,0.1-10.4,2.6-12.6,8.9l-1.9,6.6c-1.1,4.3,1.2,6.2,6.4,6.2h2.4
				l1.4-4.9c1.5-5.6,3.1-7.9,8.8-7.9h28.1c6.3-0.3,9-1.5,10.4-6l3.7-12.5C706,107.8,704.3,104.1,695.8,104.2z"/>
		</g>
	</g>
	<g class="st3">
		<path class="st16" d="M863.6,150.5h-1.7l2-12.9h1.7L863.6,150.5z"/>
		<path class="st16" d="M876.4,150.5h-1.1l-5.1-10.4l-1.6,10.4h-1.5l2-12.9h1.7l4.6,9.4l1.5-9.4h1.5L876.4,150.5z"/>
		<path class="st16" d="M887.6,139.9c-0.8-0.6-1.7-1-2.8-1c-1.5,0-2.1,0.9-2.1,1.9c0,0.8,0.5,1.4,2,2.3c2.1,1.2,2.7,2.3,2.7,3.7
			c0,2.6-2,3.9-4.2,3.9c-1.5,0-2.9-0.5-3.8-1.1l0.5-1.6c0.9,0.7,2.1,1.2,3.4,1.2c1.4,0,2.4-0.8,2.4-2.2c0-1-0.4-1.5-1.8-2.3
			c-2-1.2-2.9-2.1-2.9-3.7c0-2.1,1.6-3.6,4-3.6c1.2,0,2.4,0.4,3.1,0.9L887.6,139.9z"/>
		<path class="st16" d="M895.7,139.1l-1.8,11.3h-1.7l1.8-11.3h-3.8l0.2-1.5h9.2v1.5H895.7z"/>
		<path class="st16" d="M906.4,146.6h-4.8l-1.9,3.9h-1.8l6.7-12.9h1.7l2.5,12.7l-1.7,0.4L906.4,146.6z M902.4,145.1h3.7l-1-5.5
			L902.4,145.1z"/>
		<path class="st16" d="M920.5,150.5h-1.1l-5.1-10.4l-1.6,10.4h-1.5l2-12.9h1.7l4.6,9.4l1.5-9.4h1.5L920.5,150.5z"/>
		<path class="st16" d="M930.3,139.1l-1.8,11.3h-1.7l1.8-11.3h-3.8l0.2-1.5h9.2v1.5H930.3z"/>
		<path class="st16" d="M947.2,139.2h-4.5l-0.6,4h3.5v1.6h-3.7l-0.9,5.7h-1.7l2-12.9h6.2L947.2,139.2z"/>
		<path class="st16" d="M948,145.1c0-2.4,0.9-4.6,2.3-6.1c1.1-1.1,2.4-1.7,4-1.7c3.2,0,5,2.3,5,5.6c0,2.4-0.9,4.6-2.3,6.1
			c-1.1,1.1-2.4,1.7-4,1.7C949.8,150.7,948,148.4,948,145.1z M955.7,148.1c1.1-1.1,1.8-2.9,1.8-5.1c0-2.6-1.1-4.2-3.3-4.2
			c-1,0-1.9,0.4-2.6,1.2c-1.1,1.1-1.8,2.9-1.8,5.1c0,2.6,1.1,4.2,3.3,4.2C954.1,149.2,955,148.8,955.7,148.1z"/>
		<path class="st16" d="M966.6,144.9l2.9,5.3l-1.8,0.4l-3-5.5h-1.1l-0.9,5.4h-1.7l2-12.9h2.6c2.7,0,4.3,1,4.3,3.3
			C970,143.2,968.5,144.5,966.6,144.9z M965.8,139.1h-1.2l-0.7,4.5h1.4c2,0,3-1,3-2.5C968.3,139.8,967.6,139.1,965.8,139.1z"/>
		<path class="st16" d="M982,145.3l-0.8,5.1h-1.7l0.8-5.1l-3.1-7.5l1.8-0.4l2.4,6.3l4.2-6.2h2L982,145.3z"/>
		<path class="st16" d="M987.6,145.1c0-2.4,0.9-4.6,2.3-6.1c1.1-1.1,2.4-1.7,4-1.7c3.2,0,5,2.3,5,5.6c0,2.4-0.9,4.6-2.3,6.1
			c-1.1,1.1-2.4,1.7-4,1.7C989.3,150.7,987.6,148.4,987.6,145.1z M995.2,148.1c1.1-1.1,1.8-2.9,1.8-5.1c0-2.6-1.1-4.2-3.3-4.2
			c-1,0-1.9,0.4-2.6,1.2c-1.1,1.1-1.8,2.9-1.8,5.1c0,2.6,1.1,4.2,3.3,4.2C993.6,149.2,994.5,148.8,995.2,148.1z"/>
		<path class="st16" d="M1010.5,146.2c-0.5,3.2-2.5,4.5-5.1,4.5c-2.6,0-4.3-1.4-4.3-4c0-0.4,0.1-0.9,0.1-1.4l1.2-7.7h1.7l-1.2,7.8
			c-0.1,0.4-0.1,0.8-0.1,1.1c0,1.7,0.9,2.7,2.7,2.7c1.9,0,2.9-1.2,3.3-3.3l1.3-8.2h1.7L1010.5,146.2z"/>
	</g>
	<path class="st32" d="M869.3,104.2"/>
</g>
<g>
	<g>
		<g>
			<g>
				<g>
					<g>
						<path class="st17" d="M96.5,19.3l0,0.2l7.5-1.7l-0.1-0.2c-2-6.1-6.4-9.2-13.2-9.2c-3.9,0-7.1,1.1-9.3,3.4
							C79.2,14,78,16.6,78,19.6c0,1.8,0.4,3.5,1.3,4.9c0.9,1.4,2,2.5,3.5,3.3c1.4,0.8,3.4,1.5,5.8,2.1c2.6,0.7,4.3,1.3,5,1.8
							c0.7,0.5,1,1.2,1,2.3c0,1.1-0.5,2-1.4,2.8c-0.9,0.7-2.3,1.1-4,1.1c-3.9,0-6.1-1.6-6.9-5l0-0.2l-7.8,1.1l0,0.2
							c0.6,3.6,2.2,6.3,4.8,8c2.5,1.8,5.8,2.7,9.6,2.7c4.5,0,8-1.1,10.4-3.3c2.4-2.2,3.7-5,3.7-8.3c0-2.1-0.4-3.8-1.3-5.3
							c-0.9-1.4-2.2-2.6-3.8-3.4c-1.6-0.8-3.9-1.6-6.7-2.3c-1.9-0.5-3.3-1-3.9-1.5c-0.7-0.5-1-1.2-1-2.1c0-0.9,0.4-1.7,1.2-2.4h0
							c0.8-0.7,2-1,3.4-1C93.8,15.1,95.7,16.5,96.5,19.3z"/>
					</g>
					<g>
						<polygon class="st17" points="137.3,8.9 127.3,29.7 124.2,8.9 111.8,8.9 105.9,44 112.8,44 117.6,15.5 122.1,43.8 122.1,44 
							127,44 140.6,15.9 135.9,44 144.3,44 150.2,8.9 						"/>
					</g>
					<g>
						<g>
							<path class="st17" d="M164.8,8.9L148.1,44h7.9l3.3-7.6h11.4l1.1,7.6h8.6l-5.9-35.1H164.8z M162.1,29.9l5.8-13.1l1.9,13.1
								H162.1z"/>
						</g>
					</g>
					<g>
						<g>
							<path class="st17" d="M210,9.9L210,9.9c-1.8-0.7-4.3-1.1-7.6-1.1h-13l-5.8,34.9l0,0.2h8.1l2.3-13.8h6.2l3.6,13.8h8.5
								L208,28.9c2.7-0.7,4.7-2,5.9-3.9c1.2-1.9,1.8-3.8,1.8-5.9c0-1.9-0.5-3.7-1.5-5.5C213.2,11.9,211.8,10.7,210,9.9z M206.4,21.9
								c-0.6,0.7-1.3,1.2-2.2,1.5c-0.9,0.3-2.4,0.4-4.3,0.4h-4.9l1.4-8.5h5.1c2.1,0,3.6,0.3,4.5,0.9c0.9,0.6,1.3,1.6,1.3,3
								C207.3,20.3,207,21.2,206.4,21.9z"/>
						</g>
					</g>
					<g>
						<polygon class="st17" points="245.7,8.9 219.8,8.9 218.7,15.8 227.4,15.8 222.7,44 231.1,44 235.8,15.8 244.5,15.8 						"/>
					</g>
					<g>
						<polygon class="st17" points="240.4,27.9 239.4,33.9 251.9,33.9 252.9,27.9 						"/>
					</g>
				</g>
				<g>
					<g>
						<path class="st17" d="M285.5,24.4c0.7-1.8,1.1-3.5,1.1-5.3c0-2.4-0.6-4.5-1.8-6.1c-1.2-1.7-2.7-2.8-4.4-3.3
							c-1.7-0.5-3.9-0.8-6.6-0.8h-12.6l-5.8,34.9l0,0.2h8.3l2.2-13h7.2c2.3,0,4.1-0.2,5.3-0.5c1.2-0.3,2.5-1,3.8-1.9
							C283.6,27.5,284.7,26.1,285.5,24.4z M277.1,23.1c-0.9,0.9-2.4,1.4-4.4,1.4h-5.8l1.5-9.1h4c2.5,0,4.2,0.4,4.9,1.3
							c0.7,0.9,1.1,1.9,1.1,2.9C278.5,21,278,22.2,277.1,23.1z"/>
					</g>
				</g>
				<g>
					<g>
						<path class="st17" d="M298.2,8.9L281.5,44h7.9l3.3-7.6h11.4l1.1,7.6h8.6l-5.9-35.1H298.2z M295.5,29.9l5.8-13.1l1.9,13.1
							H295.5z"/>
					</g>
				</g>
				<g>
					<polygon class="st17" points="337.3,8.9 328.4,22.4 323.2,8.9 314.1,8.9 322.9,29.2 320.4,44 328.8,44 331.2,29.2 345.3,8.9 
											"/>
				</g>
				<g>
					<path class="st17" d="M364.6,24.3c-1.6-0.8-3.9-1.6-6.7-2.3c-1.9-0.5-3.3-1-3.9-1.5c-0.7-0.5-1-1.2-1-2.1
						c0-0.9,0.4-1.7,1.2-2.4c0.8-0.7,2-1,3.4-1c3.1,0,5,1.4,5.8,4.2l0,0.2l7.5-1.7l-0.1-0.2c-2-6.1-6.4-9.2-13.2-9.2
						c-3.9,0-7.1,1.1-9.3,3.4c-2.2,2.3-3.4,4.9-3.4,7.9c0,1.8,0.4,3.5,1.3,4.9c0.9,1.4,2,2.5,3.5,3.3c1.4,0.8,3.4,1.5,5.8,2.1
						c2.6,0.7,4.3,1.3,5,1.8c0.7,0.5,1,1.2,1,2.3c0,1.1-0.5,2-1.4,2.8c-0.9,0.7-2.3,1.1-4,1.1c-3.9,0-6.1-1.6-6.9-5l0-0.2l-7.8,1.1
						l0,0.2c0.6,3.6,2.2,6.3,4.8,8c2.5,1.8,5.8,2.7,9.6,2.7c4.5,0,8-1.1,10.4-3.3c2.4-2.2,3.7-5,3.7-8.3c0-2.1-0.4-3.8-1.3-5.3
						C367.5,26.2,366.2,25.1,364.6,24.3z"/>
				</g>
			</g>
		</g>
		<g>
			<linearGradient id="SVGID_27_" gradientUnits="userSpaceOnUse" x1="22.1812" y1="-3.894" x2="35.3192" y2="24.2806">
				<stop  offset="0" style="stop-color:#3660C2"/>
				<stop  offset="0.4026" style="stop-color:#365FC0"/>
				<stop  offset="1" style="stop-color:#274585"/>
			</linearGradient>
			<path class="st33" d="M17.7,20.6c-3.4,0-5-1.4-4-4.8l0.8-2.8c1.1-2.9,2.9-3.7,5.7-4h24.6c2.7,0,3.7,1.3,3,4.1l-0.7,2.4h4.7
				c3.1,0.2,5.4-0.9,6.5-4.1l0.9-3.5c1.3-5.1-1-7.8-7.6-7.8H16.6C11.4,0.1,7.9,2.5,6.3,7L5.7,9l0,0L2.6,19.6
				c-1.4,5.2-0.6,9.9,6.3,9.9l1.4,0c5.9,0.1,10.6-1.5,15.4-4c2.3-1.2,9.2-4.8,9.2-4.8H17.7z"/>
			<linearGradient id="SVGID_28_" gradientUnits="userSpaceOnUse" x1="26.6387" y1="25.6846" x2="34.7395" y2="55.9172">
				<stop  offset="0.2359" style="stop-color:#79C22E"/>
				<stop  offset="0.9026" style="stop-color:#64A22E"/>
			</linearGradient>
			<path class="st34" d="M53.2,20.6l-4.3,0c-4.8,0-8.2,1.1-14.5,4.2l-8.9,4.7h19.8c5.3,0,6.3,1.7,5.4,5.2c-0.1,0.5-0.5,1.8-0.5,1.8
				c-1,3.2-2.6,4.6-7.8,4.5H14.9C7.4,41.2,4.5,43.7,2.3,50l-1.9,6.6c-1.1,4.3,1.2,6.2,6.4,6.2h2.4l1.4-4.9c1.5-5.6,3.1-7.9,8.8-7.9
				h28.1c6.3-0.3,9-1.5,10.4-6l3.7-12.5C63.3,24.3,61.6,20.5,53.2,20.6z"/>
		</g>
	</g>
	<path class="st35" d="M226.6,20.6"/>
</g>
</svg>
