<svg xmlns="http://www.w3.org/2000/svg" width="30" height="30" viewBox="0 0 30 30"><g><g><path fill="#fff" d="M25.087 26.09l.015.013-.5.417c-.049.042-.104.077-.154.118-.229.185-.464.363-.703.536-.1.072-.199.145-.3.213a15.154 15.154 0 0 1-2.09 1.194c-.04.02-.083.038-.124.057a14.874 14.874 0 0 1-3.577 1.12c-.034.008-.068.014-.102.02-.391.066-.787.12-1.188.156l-.152.012c-.4.032-.804.053-1.212.053-.413 0-.82-.021-1.222-.055l-.148-.011a15.044 15.044 0 0 1-1.198-.16l-.1-.017a14.875 14.875 0 0 1-3.628-1.148c-.026-.013-.052-.024-.078-.035a15.14 15.14 0 0 1-2.122-1.222c-.09-.062-.178-.126-.266-.19-.273-.197-.54-.4-.8-.615-.031-.026-.065-.048-.097-.074l-.487-.41.015-.013a14.96 14.96 0 0 1-4.87-11.05c0-8.27 6.73-15 15-15 8.272 0 15 6.73 15 15 0 4.39-1.896 8.346-4.912 11.091zm-19.373-.747c.136-.098.272-.185.41-.26l4.313-2.353c.39-.213.633-.622.633-1.067v-1.579c-.336-.444-1.245-1.754-1.687-3.485a1.984 1.984 0 0 1-.73-1.538v-1.934c0-.473.173-.932.483-1.292V9.29c-.028-.282-.129-1.88 1.027-3.199C11.17 4.944 12.796 4.363 15 4.363c2.204 0 3.831.58 4.836 1.728 1.156 1.318 1.056 2.915 1.028 3.199v2.546c.31.36.483.818.483 1.291v1.934a1.98 1.98 0 0 1-1.137 1.794c-.35 1.01-.829 1.95-1.427 2.794-.117.165-.23.314-.336.446v1.613c0 .463.257.88.672 1.087l4.618 2.31a4.1 4.1 0 0 1 .487.292c2.871-2.55 4.685-6.265 4.685-10.398 0-7.67-6.24-13.91-13.91-13.91C7.33 1.09 1.092 7.33 1.092 15c0 4.103 1.787 7.796 4.623 10.344z"/></g></g></svg>