<?xml version="1.0" encoding="utf-8"?>
<!-- Generator: Adobe Illustrator 22.0.0, SVG Export Plug-In . SVG Version: 6.00 Build 0)  -->
<svg version="1.1" id="Прямоугольник_x2C__скругл._углы_1_копия_2_kопировать_1_"
	 xmlns="http://www.w3.org/2000/svg" xmlns:xlink="http://www.w3.org/1999/xlink" x="0px" y="0px" viewBox="0 0 22 21"
	 style="enable-background:new 0 0 22 21;" xml:space="preserve">
<style type="text/css">
	.st0{fill:none;}
</style>
<g id="Прямоугольник_x2C__скругл._углы_1_копия_2_kопировать">
	<path class="st0" d="M1.1,3h19.8C21.5,3,22,2.3,22,1.5C22,0.7,21.5,0,20.9,0H1.1C0.5,0,0,0.7,0,1.5C0,2.3,0.5,3,1.1,3z M20.9,9H1.1
		C0.5,9,0,9.7,0,10.5C0,11.3,0.5,12,1.1,12h19.8c0.6,0,1.1-0.7,1.1-1.5C22,9.7,21.5,9,20.9,9z M20.9,18H1.1C0.5,18,0,18.7,0,19.5
		C0,20.3,0.5,21,1.1,21h19.8c0.6,0,1.1-0.7,1.1-1.5C22,18.7,21.5,18,20.9,18z"/>
</g>
</svg>
