<?xml version="1.0" encoding="utf-8"?>
<!-- Generator: Adobe Illustrator 22.0.0, SVG Export Plug-In . SVG Version: 6.00 Build 0)  -->
<svg version="1.1" xmlns="http://www.w3.org/2000/svg" xmlns:xlink="http://www.w3.org/1999/xlink" x="0px" y="0px"
	 viewBox="0 0 64 60" style="enable-background:new 0 0 64 60;" xml:space="preserve">
<style type="text/css">
	.st0{enable-background:new    ;}
	.st1{fill-rule:evenodd;clip-rule:evenodd;fill:#00ABEC;}
	.st2{fill-rule:evenodd;clip-rule:evenodd;fill:#00A6EB;}
</style>
<g id="Forma_1_1_" class="st0">
	<g id="Forma_1">
		<g>
			<path class="st1" d="M64,19.9L60.6,2.5c-0.1-0.5-0.5-0.9-0.9-1c-0.5-0.1-1,0-1.4,0.3l-6.1,6.1C40.5-2.9,22.2-2.6,10.8,8.8
				C5.4,14.2,2.3,21.4,2,29c0,0.7,0.6,1.4,1.3,1.4c0,0,0,0,0,0c0.7,0,1.3-0.6,1.3-1.3c0.2-6.9,3.1-13.5,8-18.4
				c10.7-10.6,28-10.6,38.6,0c0.5,0.5,1.4,0.5,1.9,0l5.2-5.2l2.5,12.9L48,15.9l1.8-1.8c0.5-0.5,0.5-1.4,0-1.9
				c-0.5-0.5-1.4-0.5-1.9,0l-3.6,3.6c-0.4,0.4-0.5,0.9-0.3,1.4c0.1,0.5,0.5,0.8,1,0.9l17.4,3.3c0.4,0.1,0.9-0.1,1.2-0.4
				C63.9,20.8,64.1,20.3,64,19.9z M60.7,29.6C60.7,29.6,60.7,29.6,60.7,29.6c-0.8,0-1.4,0.6-1.4,1.3c-0.2,6.9-3.1,13.5-8,18.4
				c-10.7,10.6-28,10.6-38.6,0c-0.5-0.5-1.4-0.5-1.9,0l-5.2,5.2L3.1,41.6L16,44.1l-1.8,1.8c-0.5,0.5-0.5,1.4,0,1.9
				c0.5,0.5,1.4,0.5,1.9,0l3.6-3.6c0.4-0.4,0.5-0.9,0.3-1.4c-0.1-0.5-0.5-0.8-1-0.9L1.6,38.6c-0.4-0.1-0.9,0.1-1.2,0.4
				c-0.3,0.3-0.5,0.8-0.4,1.2l3.3,17.4c0.1,0.5,0.5,0.9,0.9,1c0.5,0.1,1,0,1.4-0.3l6.1-6.1c5.7,5.2,13,7.8,20.2,7.8
				c7.7,0,15.4-2.9,21.2-8.8c5.4-5.4,8.5-12.6,8.8-20.2C62,30.3,61.4,29.6,60.7,29.6z"/>
		</g>
	</g>
</g>
<g id="Фигура_8_1_" class="st0">
	<g id="Фигура_8">
		<g>
			<path class="st2" d="M46.1,24.2c-1.9-0.5-3.1,1.1-4.1,3.6l-1.1,2.7l-8.1-15c-0.4-0.8-1.4-1-2.2-0.6c-0.8,0.4-1.1,1.4-0.7,2.2
				l4.7,8.7c0.2,0.3,0,0.7-0.3,0.9c-0.4,0.2-0.8,0.1-0.9-0.2l-6-11.1c-0.4-0.8-1.4-1-2.2-0.6c-0.8,0.4-1.1,1.4-0.7,2.2l5.3,9.9
				c0.2,0.3,0,0.7-0.3,0.9c-0.4,0.2-0.8,0.1-0.9-0.2l-4.7-8.7c-0.4-0.8-1.4-1-2.2-0.6c-0.8,0.4-1.1,1.4-0.7,2.2l6,11.1
				c0.2,0.3,0,0.7-0.3,0.9c-0.4,0.2-0.8,0.1-0.9-0.2l-4.1-7.5c-0.4-0.8-1.4-1-2.2-0.6c-0.8,0.4-1.1,1.4-0.6,2.1l8.7,16
				c2.1,3.8,5.7,5.2,9,3.4l4-2.2c1.7-0.9,2.4-2.3,2.4-2.3c2.1-3.4,3-10.2,3.6-12.3C46.7,26.6,47.4,24.6,46.1,24.2z"/>
		</g>
	</g>
</g>
</svg>
