<svg xmlns="http://www.w3.org/2000/svg" viewBox="0 0 89 90" width="89" height="90">
	<style>
		tspan { white-space:pre }
		.shp0 { fill: #00abec;stroke: #ffffff;stroke-width: 0.1 } 
	</style>
	<g id="advantages">
		<path id="Shape 1" class="shp0" d="M22.93 58.89C22.15 58.24 21 58.33 20.34 59.11C20.09 59.41 19.84 59.72 19.6 60.03C18.97 60.83 19.11 61.99 19.91 62.62C20.24 62.88 20.64 63.01 21.04 63.01C21.58 63.01 22.12 62.77 22.49 62.3C22.7 62.03 22.92 61.76 23.15 61.49C23.8 60.71 23.7 59.55 22.93 58.89ZM56.83 22.77C57.18 23.07 57.61 23.22 58.04 23.22C58.56 23.22 59.06 23.01 59.43 22.59C59.68 22.3 59.91 22.01 60.12 21.73C60.71 20.9 60.52 19.75 59.7 19.16C58.87 18.56 57.73 18.75 57.13 19.57C57 19.76 56.84 19.96 56.66 20.17C55.99 20.93 56.07 22.1 56.83 22.77ZM87.16 78.11L84.36 78.11C84.05 71.32 82.02 64.75 78.44 59C74.96 53.4 70.14 48.76 64.45 45.51C64.68 44.89 64.9 44.19 65.12 43.41L68.91 43.41C72.35 43.41 75.16 40.6 75.16 37.14L75.16 31.33C75.16 27.88 72.35 25.06 68.91 25.06L68.25 25.06C68.41 22.56 68.33 20.15 67.75 18.21C66.15 12.86 63.13 8.39 59 5.29C54.98 2.28 50.1 0.68 44.9 0.68C39.69 0.68 34.81 2.28 30.79 5.3C26.66 8.39 23.64 12.86 22.04 18.21C21.47 20.15 21.38 22.56 21.54 25.06L20.89 25.06C17.44 25.06 14.64 27.88 14.64 31.34L14.64 37.14C14.64 40.6 17.44 43.41 20.89 43.41L24.67 43.41C24.89 44.19 25.11 44.89 25.35 45.51C19.65 48.76 14.84 53.4 11.35 59C7.77 64.75 5.74 71.32 5.43 78.11L2.63 78.11C1.62 78.11 0.79 78.93 0.79 79.95C0.79 80.97 1.62 81.79 2.63 81.79L7.22 81.79L19.27 81.79L21.08 87.85C21.32 88.63 22.03 89.17 22.84 89.17L59.01 89.17C59.01 89.17 59.02 89.17 59.02 89.17C59.02 89.17 59.03 89.17 59.03 89.17L66.95 89.17C67.76 89.17 68.47 88.63 68.71 87.85L70.52 81.79L82.57 81.79L87.16 81.79C88.18 81.79 89 80.97 89 79.95C89 78.93 88.18 78.11 87.16 78.11ZM66.39 37.2C66.49 36.62 66.63 35.86 66.8 34.97C67.15 33.16 67.56 30.99 67.87 28.75L68.91 28.75L68.91 28.75C70.33 28.75 71.48 29.91 71.48 31.33L71.48 37.14C71.48 38.57 70.33 39.73 68.91 39.73L65.95 39.73C66.09 38.95 66.24 38.11 66.39 37.2ZM20.89 39.73L20.89 39.73C19.47 39.73 18.31 38.57 18.31 37.14L18.31 31.33C18.31 29.91 19.47 28.75 20.89 28.75L21.92 28.75C22.23 30.99 22.64 33.16 22.99 34.97C23.16 35.85 23.3 36.61 23.4 37.2C23.55 38.11 23.7 38.95 23.85 39.73L20.89 39.73ZM25.21 24.84C25.07 22.72 25.13 20.74 25.57 19.27C28.3 10.08 35.71 4.37 44.9 4.37C54.08 4.37 61.49 10.08 64.23 19.27C64.78 21.11 64.73 23.76 64.44 26.47C64.41 26.61 64.39 26.76 64.39 26.91C64.39 26.92 64.39 26.93 64.39 26.95C64.09 29.59 63.58 32.26 63.19 34.28C63.02 35.19 62.87 35.97 62.76 36.61C62.51 38.17 62.27 39.48 62.03 40.61C59.32 43.08 54.7 44.77 50.02 45.17C49.89 44.29 49.13 43.6 48.2 43.6L44.9 43.6C43.88 43.6 43.06 44.43 43.06 45.45L43.06 46.92C43.06 46.94 43.06 46.96 43.06 46.98C43.06 47.02 43.06 47.06 43.07 47.09C43.07 47.12 43.07 47.14 43.08 47.17C43.08 47.2 43.09 47.24 43.09 47.27C43.1 47.3 43.1 47.33 43.11 47.35C43.12 47.38 43.13 47.42 43.13 47.45C43.14 47.48 43.15 47.5 43.16 47.53C43.17 47.56 43.18 47.59 43.19 47.61C43.21 47.64 43.22 47.67 43.23 47.7C43.24 47.73 43.26 47.75 43.27 47.78C43.28 47.8 43.3 47.83 43.32 47.86C43.33 47.88 43.34 47.91 43.36 47.93C43.37 47.95 43.39 47.98 43.41 48C43.43 48.03 43.44 48.05 43.46 48.07C43.48 48.1 43.5 48.12 43.52 48.14C43.54 48.16 43.56 48.18 43.58 48.21C43.6 48.23 43.62 48.25 43.64 48.26C43.66 48.29 43.68 48.31 43.71 48.33C43.73 48.35 43.75 48.36 43.77 48.38C43.8 48.4 43.82 48.42 43.85 48.44C43.87 48.45 43.89 48.47 43.92 48.48C43.94 48.5 43.97 48.51 44 48.53C44.02 48.54 44.05 48.56 44.07 48.57C44.1 48.58 44.13 48.6 44.16 48.61C44.19 48.62 44.22 48.63 44.24 48.65C44.27 48.65 44.3 48.66 44.32 48.67C44.36 48.68 44.39 48.69 44.42 48.7C44.45 48.71 44.47 48.72 44.5 48.72C44.53 48.73 44.57 48.74 44.61 48.74C44.63 48.74 44.65 48.75 44.67 48.75C44.68 48.75 44.69 48.75 44.7 48.76C44.71 48.76 44.71 48.76 44.71 48.76C45.76 48.89 46.83 48.95 47.9 48.95C52.05 48.95 56.3 48.01 59.8 46.37C58.93 47.47 57.79 48.2 56.15 49.24C55.47 49.68 54.69 50.17 53.83 50.76C50.86 52.47 47.86 53.33 44.9 53.33C41.93 53.33 38.93 52.47 35.96 50.76C35.1 50.17 34.33 49.68 33.64 49.24C30.38 47.16 29.1 46.34 27.93 41.35C27.92 41.22 27.89 41.1 27.85 40.98C27.58 39.77 27.31 38.34 27.03 36.61C26.92 35.97 26.77 35.18 26.6 34.28C26.29 32.66 25.9 30.62 25.6 28.51C28.98 28.04 36.21 26.81 41.08 24.46L42.29 27.37C42.41 27.67 42.52 27.93 42.6 28.15C43.01 29.19 43.39 30.17 44.54 30.56C44.82 30.65 45.08 30.69 45.35 30.69C46 30.69 46.67 30.46 47.61 30.14C47.87 30.05 48.16 29.95 48.49 29.84C49.77 29.42 52.32 28.15 54.75 26.53C55.59 25.97 55.82 24.83 55.26 23.98C54.7 23.13 53.56 22.9 52.71 23.46C50.45 24.97 48.21 26.05 47.34 26.34C47 26.46 46.69 26.56 46.43 26.65C46.29 26.7 46.15 26.74 46.02 26.79C45.92 26.55 45.81 26.27 45.68 25.95L43.69 21.15C43.48 20.64 43.05 20.26 42.53 20.09C42.01 19.93 41.44 20.01 40.99 20.31C37.01 22.91 28.86 24.32 25.21 24.84ZM67.4 79.4C67.4 79.4 67.4 79.4 67.4 79.41L65.58 85.48L61.41 85.48L62.18 82.61C62.44 81.63 61.86 80.62 60.88 80.36C59.9 80.09 58.89 80.68 58.63 81.66L57.61 85.48L24.21 85.48L22.4 79.42C22.4 79.41 22.39 79.4 22.39 79.39L19.8 70.73L23.85 70.73L24.87 74.55C25.09 75.37 25.83 75.92 26.65 75.92C26.8 75.92 26.96 75.9 27.12 75.85C28.1 75.59 28.68 74.58 28.42 73.6L27.66 70.73L69.99 70.73L67.4 79.4ZM71.62 78.11L74.22 69.42C74.39 68.86 74.28 68.26 73.94 67.79C73.59 67.32 73.04 67.05 72.46 67.05L17.33 67.05C16.75 67.05 16.2 67.32 15.86 67.79C15.51 68.26 15.4 68.86 15.57 69.42L18.17 78.11L9.11 78.11C9.72 65.84 16.48 54.83 27.13 48.73C27.93 49.71 28.88 50.49 30.08 51.31C28.29 52.25 26.58 53.35 25 54.6C24.2 55.23 24.07 56.39 24.69 57.19C25.06 57.65 25.59 57.89 26.14 57.89C26.54 57.89 26.94 57.76 27.27 57.49C28.72 56.35 30.28 55.35 31.92 54.5L33.63 53.63C33.73 53.7 33.84 53.77 33.95 53.85L34.07 53.92C37.62 55.97 41.26 57.02 44.89 57.02C44.9 57.02 44.9 57.02 44.9 57.02C48.53 57.02 52.17 55.97 55.73 53.92L55.84 53.85C56.68 53.28 57.45 52.79 58.12 52.35C60.11 51.09 61.54 50.11 62.66 48.73C73.32 54.83 80.07 65.84 80.68 78.11L71.62 78.11L71.62 78.11ZM27.67 77.9C26.69 78.16 26.11 79.18 26.37 80.16L26.58 80.96C26.8 81.78 27.55 82.33 28.36 82.33C28.52 82.33 28.68 82.31 28.83 82.26C29.82 82 30.4 80.99 30.13 80.01L29.92 79.2C29.66 78.22 28.65 77.64 27.67 77.9ZM61.42 78.31C61.58 78.35 61.74 78.37 61.9 78.37C62.71 78.37 63.45 77.83 63.67 77.01L63.89 76.2C64.15 75.22 63.57 74.21 62.59 73.95C61.61 73.68 60.6 74.27 60.34 75.25L60.12 76.05C59.86 77.04 60.44 78.05 61.42 78.31Z" />
	</g>
</svg>