<svg xmlns="http://www.w3.org/2000/svg" width="27" height="36" viewBox="0 0 27 36"><defs><clipPath id="5urna"><path fill="#fff" d="M10.5 22.5c0-1.655 1.345-3 3-3s3 1.345 3 3c0 .97-.46 1.854-1.227 2.413l.473 4.254A.751.751 0 0 1 15 30h-3a.75.75 0 0 1-.746-.833l.474-4.254A2.968 2.968 0 0 1 10.5 22.5zm1.5 0c0 .575.327 1.09.853 1.345a.75.75 0 0 1 .419.758l-.434 3.897h1.324l-.434-3.897a.75.75 0 0 1 .42-.758c.525-.255.852-.77.852-1.345 0-.827-.673-1.5-1.5-1.5s-1.5.673-1.5 1.5zm15-8.25V33c0 1.654-1.345 3-3 3H3c-1.655 0-3-1.346-3-3V14.25a.75.75 0 0 1 .75-.75H3v-3C3 4.71 7.71 0 13.5 0S24 4.71 24 10.5v3h2.25a.75.75 0 0 1 .75.75zM4.5 13.5H6v-3C6 6.365 9.365 3 13.5 3S21 6.365 21 10.5v3h1.5v-3c0-4.963-4.037-9-9-9s-9 4.037-9 9zm9-9c-3.308 0-6 2.692-6 6v3h12v-3c0-3.308-2.692-6-6-6zm12 10.5h-24v18c0 .827.673 1.5 1.5 1.5h21c.827 0 1.5-.673 1.5-1.5z"/></clipPath></defs><g><g><path fill="#00abec" d="M10.5 22.5c0-1.655 1.345-3 3-3s3 1.345 3 3c0 .97-.46 1.854-1.227 2.413l.473 4.254A.751.751 0 0 1 15 30h-3a.75.75 0 0 1-.746-.833l.474-4.254A2.968 2.968 0 0 1 10.5 22.5zm1.5 0c0 .575.327 1.09.853 1.345a.75.75 0 0 1 .419.758l-.434 3.897h1.324l-.434-3.897a.75.75 0 0 1 .42-.758c.525-.255.852-.77.852-1.345 0-.827-.673-1.5-1.5-1.5s-1.5.673-1.5 1.5zm15-8.25V33c0 1.654-1.345 3-3 3H3c-1.655 0-3-1.346-3-3V14.25a.75.75 0 0 1 .75-.75H3v-3C3 4.71 7.71 0 13.5 0S24 4.71 24 10.5v3h2.25a.75.75 0 0 1 .75.75zM4.5 13.5H6v-3C6 6.365 9.365 3 13.5 3S21 6.365 21 10.5v3h1.5v-3c0-4.963-4.037-9-9-9s-9 4.037-9 9zm9-9c-3.308 0-6 2.692-6 6v3h12v-3c0-3.308-2.692-6-6-6zm12 10.5h-24v18c0 .827.673 1.5 1.5 1.5h21c.827 0 1.5-.673 1.5-1.5z"/><path fill="none" stroke="#f5f5f5" stroke-miterlimit="20" stroke-width=".4" d="M10.5 22.5c0-1.655 1.345-3 3-3s3 1.345 3 3c0 .97-.46 1.854-1.227 2.413l.473 4.254A.751.751 0 0 1 15 30h-3a.75.75 0 0 1-.746-.833l.474-4.254A2.968 2.968 0 0 1 10.5 22.5zm1.5 0c0 .575.327 1.09.853 1.345a.75.75 0 0 1 .419.758l-.434 3.897h1.324l-.434-3.897a.75.75 0 0 1 .42-.758c.525-.255.852-.77.852-1.345 0-.827-.673-1.5-1.5-1.5s-1.5.673-1.5 1.5zm15-8.25V33c0 1.654-1.345 3-3 3H3c-1.655 0-3-1.346-3-3V14.25a.75.75 0 0 1 .75-.75H3v-3C3 4.71 7.71 0 13.5 0S24 4.71 24 10.5v3h2.25a.75.75 0 0 1 .75.75zM4.5 13.5H6v-3C6 6.365 9.365 3 13.5 3S21 6.365 21 10.5v3h1.5v-3c0-4.963-4.037-9-9-9s-9 4.037-9 9zm9-9c-3.308 0-6 2.692-6 6v3h12v-3c0-3.308-2.692-6-6-6zm12 10.5h-24v18c0 .827.673 1.5 1.5 1.5h21c.827 0 1.5-.673 1.5-1.5z" clip-path="url(&quot;#5urna&quot;)"/></g></g></svg>