<svg xmlns="http://www.w3.org/2000/svg" width="51" height="40" viewBox="0 0 51 40"><defs><clipPath id="zyb8a"><path fill="#fff" d="M1.497 38.999V1.001h37.006v37.998zm28.22-3.007c1.325 0 2.377-.33 3.034-.989.191-.189.395-.383.605-.583 1.273-1.207 2.714-2.576 2.64-4.384-.052-1.25-.826-2.457-2.366-3.694-4.547-3.653-6.168-2.01-8.045-.107l-.34.342c-.564.564-1.938-.191-2.707-.69-1.22-.793-2.749-2.104-4.54-3.894-5.488-5.486-4.898-6.93-4.586-7.243l.337-.333c1.909-1.88 3.558-3.5-.1-8.047-1.238-1.54-2.447-2.314-3.695-2.366C8.144 3.94 6.777 5.37 5.568 6.64c-.2.211-.394.416-.585.606-1.325 1.324-1.322 4.216.008 7.74 1.463 3.875 4.353 8.093 8.137 11.875 3.783 3.782 8.002 6.67 11.88 8.13 1.768.668 3.377 1.001 4.709 1.001zM9.825 5.078l.084.001c.907.039 1.883.7 2.902 1.964 3.048 3.788 1.97 4.848.184 6.604l-.343.34c-1.426 1.427.031 4.213 4.586 8.764 1.843 1.843 3.43 3.201 4.714 4.036 1.852 1.203 3.216 1.39 4.056.549l.344-.348c1.757-1.78 2.817-2.855 6.605.19 1.266 1.017 1.927 1.993 1.965 2.9.055 1.32-1.2 2.51-2.305 3.56-.218.206-.429.406-.626.603-.985.984-3.576.887-6.602-.255-3.74-1.409-7.822-4.21-11.5-7.884-3.678-3.677-6.48-7.76-7.89-11.495-1.142-3.025-1.242-5.614-.254-6.6.197-.197.397-.408.604-.625C7.377 6.3 8.539 5.078 9.825 5.078z"/></clipPath></defs><g><g><path fill="#00abec" d="M44.585 19.813a.41.41 0 0 1-.307-.036l-5.837-3.167a.42.42 0 0 1-.042-.026l-1.014 1.528a2.348 2.348 0 0 1-1.345.95 2.318 2.318 0 0 1-1.632-.14l-1.63-.809a.43.43 0 0 1-.024.044l-3.496 5.705a.417.417 0 0 1-.578.137.428.428 0 0 1-.136-.585l3.479-5.675-10.171-5.048c-.022.163-.013.332.031.5L25.581 27.2c.18.68.872 1.084 1.542.902l21.094-5.737a1.28 1.28 0 0 0 .89-1.563L45.41 6.794a1.275 1.275 0 0 0-.217-.448l-6.324 9.53 5.808 3.151a.428.428 0 0 1-.09.786zm3.848 3.374L27.34 28.923a2.096 2.096 0 0 1-2.57-1.503l-3.698-14.008c-.299-1.133.368-2.302 1.485-2.606L43.651 5.07a2.096 2.096 0 0 1 2.57 1.503l3.697 14.008c.3 1.133-.367 2.302-1.485 2.606zM22.774 11.628c-.209.057-.392.165-.539.306l12.542 6.223c.639.317 1.515.079 1.911-.52l7.799-11.754a1.235 1.235 0 0 0-.62.009z"/><path fill="none" stroke="#00abec" stroke-miterlimit="20" stroke-width=".2" d="M44.585 19.813a.41.41 0 0 1-.307-.036l-5.837-3.167a.42.42 0 0 1-.042-.026l-1.014 1.528a2.348 2.348 0 0 1-1.345.95 2.318 2.318 0 0 1-1.632-.14l-1.63-.809a.43.43 0 0 1-.024.044l-3.496 5.705a.417.417 0 0 1-.578.137.428.428 0 0 1-.136-.585l3.479-5.675-10.171-5.048c-.022.163-.013.332.031.5L25.581 27.2c.18.68.872 1.084 1.542.902l21.094-5.737a1.28 1.28 0 0 0 .89-1.563L45.41 6.794a1.275 1.275 0 0 0-.217-.448l-6.324 9.53 5.808 3.151a.428.428 0 0 1-.09.786zm3.848 3.374L27.34 28.923a2.096 2.096 0 0 1-2.57-1.503l-3.698-14.008c-.299-1.133.368-2.302 1.485-2.606L43.651 5.07a2.096 2.096 0 0 1 2.57 1.503l3.697 14.008c.3 1.133-.367 2.302-1.485 2.606zM22.774 11.628c-.209.057-.392.165-.539.306l12.542 6.223c.639.317 1.515.079 1.911-.52l7.799-11.754a1.235 1.235 0 0 0-.62.009z"/></g><g><path fill="#00abec" d="M29.717 35.992c-1.332 0-2.94-.333-4.71-1-3.877-1.462-8.096-4.35-11.88-8.13-3.783-3.783-6.673-8-8.136-11.876-1.33-3.524-1.333-6.416-.008-7.74.191-.19.385-.395.585-.606 1.209-1.27 2.575-2.7 4.386-2.636 1.248.052 2.457.827 3.695 2.366 3.658 4.547 2.009 6.168.1 8.047l-.337.333c-.312.312-.902 1.757 4.586 7.243 1.791 1.79 3.32 3.1 4.54 3.894.769.499 2.143 1.254 2.708.69l.339-.342c1.877-1.903 3.498-3.546 8.045.107 1.54 1.237 2.314 2.444 2.366 3.694.074 1.808-1.367 3.177-2.64 4.384-.21.2-.414.394-.605.583-.657.659-1.71.99-3.034.99zM9.825 5.078c-1.287 0-2.448 1.222-3.476 2.304-.207.217-.407.428-.604.625-.988.986-.888 3.575.254 6.6 1.41 3.736 4.212 7.818 7.89 11.495 3.678 3.674 7.76 6.475 11.5 7.884 3.026 1.142 5.617 1.24 6.602.255.197-.197.408-.397.626-.603 1.105-1.05 2.36-2.24 2.305-3.56-.038-.907-.699-1.883-1.965-2.9-3.788-3.045-4.848-1.97-6.605-.19l-.344.348c-.84.84-2.204.654-4.056-.549-1.284-.835-2.87-2.193-4.714-4.036-4.555-4.551-6.012-7.337-4.586-8.765l.343-.339c1.786-1.756 2.864-2.816-.184-6.604-1.02-1.265-1.995-1.925-2.902-1.964l-.084-.001z"/><path fill="none" stroke="#f5f5f5" stroke-linecap="round" stroke-linejoin="round" stroke-miterlimit="20" stroke-width="6" d="M29.717 35.992c-1.332 0-2.94-.333-4.71-1-3.877-1.462-8.096-4.35-11.88-8.13-3.783-3.783-6.673-8-8.136-11.876-1.33-3.524-1.333-6.416-.008-7.74.191-.19.385-.395.585-.606 1.209-1.27 2.575-2.7 4.386-2.636 1.248.052 2.457.827 3.695 2.366 3.658 4.547 2.009 6.168.1 8.047l-.337.333c-.312.312-.902 1.757 4.586 7.243 1.791 1.79 3.32 3.1 4.54 3.894.769.499 2.143 1.254 2.708.69l.339-.342c1.877-1.903 3.498-3.546 8.045.107 1.54 1.237 2.314 2.444 2.366 3.694.074 1.808-1.367 3.177-2.64 4.384-.21.2-.414.394-.605.583-.657.659-1.71.99-3.034.99zM9.825 5.078c-1.287 0-2.448 1.222-3.476 2.304-.207.217-.407.428-.604.625-.988.986-.888 3.575.254 6.6 1.41 3.736 4.212 7.818 7.89 11.495 3.678 3.674 7.76 6.475 11.5 7.884 3.026 1.142 5.617 1.24 6.602.255.197-.197.408-.397.626-.603 1.105-1.05 2.36-2.24 2.305-3.56-.038-.907-.699-1.883-1.965-2.9-3.788-3.045-4.848-1.97-6.605-.19l-.344.348c-.84.84-2.204.654-4.056-.549-1.284-.835-2.87-2.193-4.714-4.036-4.555-4.551-6.012-7.337-4.586-8.765l.343-.339c1.786-1.756 2.864-2.816-.184-6.604-1.02-1.265-1.995-1.925-2.902-1.964l-.084-.001z" clip-path="url(&quot;#zyb8a&quot;)"/><path fill="none" stroke="#00abec" stroke-miterlimit="20" stroke-width=".1" d="M29.717 35.992c-1.332 0-2.94-.333-4.71-1-3.877-1.462-8.096-4.35-11.88-8.13-3.783-3.783-6.673-8-8.136-11.876-1.33-3.524-1.333-6.416-.008-7.74.191-.19.385-.395.585-.606 1.209-1.27 2.575-2.7 4.386-2.636 1.248.052 2.457.827 3.695 2.366 3.658 4.547 2.009 6.168.1 8.047l-.337.333c-.312.312-.902 1.757 4.586 7.243 1.791 1.79 3.32 3.1 4.54 3.894.769.499 2.143 1.254 2.708.69l.339-.342c1.877-1.903 3.498-3.546 8.045.107 1.54 1.237 2.314 2.444 2.366 3.694.074 1.808-1.367 3.177-2.64 4.384-.21.2-.414.394-.605.583-.657.659-1.71.99-3.034.99zM9.825 5.078c-1.287 0-2.448 1.222-3.476 2.304-.207.217-.407.428-.604.625-.988.986-.888 3.575.254 6.6 1.41 3.736 4.212 7.818 7.89 11.495 3.678 3.674 7.76 6.475 11.5 7.884 3.026 1.142 5.617 1.24 6.602.255.197-.197.408-.397.626-.603 1.105-1.05 2.36-2.24 2.305-3.56-.038-.907-.699-1.883-1.965-2.9-3.788-3.045-4.848-1.97-6.605-.19l-.344.348c-.84.84-2.204.654-4.056-.549-1.284-.835-2.87-2.193-4.714-4.036-4.555-4.551-6.012-7.337-4.586-8.765l.343-.339c1.786-1.756 2.864-2.816-.184-6.604-1.02-1.265-1.995-1.925-2.902-1.964l-.084-.001z"/></g></g></svg>