<svg xmlns="http://www.w3.org/2000/svg" width="27" height="34" viewBox="0 0 27 34"><g><g><path fill="#00abec" d="M22.5 14.733a.564.564 0 0 1-.563.567H7.875a.564.564 0 0 1-.563-.567c0-.313.252-.567.563-.567h14.062c.31 0 .563.254.563.567zM7.312 10.2c0-.313.252-.567.563-.567H13.5c.31 0 .562.254.562.567a.564.564 0 0 1-.562.566H7.875a.564.564 0 0 1-.563-.566zM22.5 19.267a.564.564 0 0 1-.563.566H7.875a.564.564 0 0 1-.563-.566c0-.314.252-.567.563-.567h14.062c.31 0 .563.253.563.567zm0 4.533a.564.564 0 0 1-.563.566H7.875a.564.564 0 0 1-.563-.566c0-.313.252-.567.563-.567h14.062c.31 0 .563.254.563.567zm0 4.533a.564.564 0 0 1-.563.567H7.875a.564.564 0 0 1-.563-.567c0-.313.252-.566.563-.566h14.062c.31 0 .563.253.563.566zM27 11.1v22.9H2.812v-2.832H0V0h24.187v8.265zm-7.875-.333h5.955l-.893-.898-5.062-5.1zM2.812 30.033v-27.2h15.983l4.267 4.299V1.133H1.125v28.9zm23.063 2.834V11.9H18V3.967H3.937v28.9z"/></g></g></svg>