<svg xmlns="http://www.w3.org/2000/svg" viewBox="0 0 80 100" width="80" height="100">
	<style>
		tspan { white-space:pre }
		.shp0 { fill: #00abec } 
	</style>
	<g id="advantages">
		<path id="Shape 1" class="shp0" d="M77.78 21.16C78.63 21.16 79.33 20.46 79.33 19.59L79.33 8.59C79.33 4.32 75.83 0.85 71.52 0.85L8.68 0.85C4.33 0.85 0.92 4.25 0.92 8.59L0.92 78.76C0.92 83.14 4.4 86.71 8.68 86.71L23.95 86.71L23.95 97.6C23.95 98.14 24.23 98.64 24.69 98.93C25.15 99.22 25.72 99.24 26.2 99L33.8 95.16L41.4 99C41.62 99.11 41.86 99.17 42.1 99.17C42.38 99.17 42.67 99.09 42.92 98.93C43.37 98.64 43.65 98.14 43.65 97.6L43.65 86.7L71.52 86.65C75.83 86.65 79.33 83.11 79.33 78.76L79.33 67.76C79.33 66.89 78.63 66.19 77.78 66.19L66.89 66.19L66.89 21.16L77.78 21.16ZM76.22 8.59L76.22 18.02L66.89 18.02L66.89 8.69C66.89 6.11 68.96 4 71.52 3.99C74.11 3.99 76.22 6.06 76.22 8.59ZM41.37 72.13C41.15 72.25 40.96 72.42 40.82 72.62C38.87 74.26 36.42 75.16 33.87 75.16C31.17 75.16 28.58 74.15 26.58 72.32C24.29 70.23 22.98 67.26 22.98 64.16C22.98 58.1 27.87 53.17 33.87 53.17C39.88 53.17 44.76 58.1 44.76 64.16C44.76 67.18 43.53 70.05 41.37 72.13ZM40.54 95.05L34.5 92C34.06 91.78 33.54 91.78 33.11 92L27.06 95.05L27.06 76.51C29.13 77.68 31.47 78.3 33.87 78.3C36.22 78.3 38.51 77.7 40.54 76.59L40.54 95.05ZM43.65 74.27C46.34 71.61 47.88 67.97 47.88 64.16C47.88 56.37 41.59 50.03 33.87 50.03C26.15 50.03 19.87 56.37 19.87 64.16C19.87 67.89 21.35 71.48 23.95 74.13L23.95 83.56L8.68 83.56C6.12 83.56 4.04 81.41 4.04 78.76L4.04 8.59C4.04 6.01 6.08 3.99 8.68 3.99L65.33 3.99C64.35 5.3 63.77 6.93 63.77 8.69L63.77 78.76C63.77 80.55 64.36 82.2 65.36 83.52L43.65 83.56L43.65 74.27ZM76.22 69.33L76.22 78.76C76.22 81.33 74.07 83.51 71.52 83.51C68.96 83.5 66.89 81.37 66.89 78.76L66.89 69.33L76.22 69.33ZM33.87 56.31C29.58 56.31 26.1 59.83 26.1 64.16C26.1 68.49 29.58 72.02 33.87 72.02C38.16 72.02 41.65 68.49 41.65 64.16C41.65 59.83 38.16 56.31 33.87 56.31ZM33.87 68.88C31.3 68.88 29.21 66.76 29.21 64.16C29.21 61.57 31.3 59.45 33.87 59.45C36.45 59.45 38.54 61.57 38.54 64.16C38.54 66.76 36.45 68.88 33.87 68.88ZM54.65 32.68L13.16 32.68C12.3 32.68 11.61 33.38 11.61 34.25C11.61 35.12 12.3 35.82 13.16 35.82L54.65 35.82C55.51 35.82 56.2 35.12 56.2 34.25C56.2 33.38 55.51 32.68 54.65 32.68ZM48.42 38.96L19.39 38.96C18.53 38.96 17.83 39.67 17.83 40.53C17.83 41.4 18.53 42.1 19.39 42.1L48.42 42.1C49.28 42.1 49.98 41.4 49.98 40.53C49.98 39.67 49.28 38.96 48.42 38.96ZM54.65 26.4L48.42 26.4C47.57 26.4 46.87 27.1 46.87 27.97C46.87 28.84 47.57 29.54 48.42 29.54L54.65 29.54C55.51 29.54 56.2 28.84 56.2 27.97C56.2 27.1 55.51 26.4 54.65 26.4ZM13.16 29.54L42.2 29.54C43.06 29.54 43.76 28.84 43.76 27.97C43.76 27.1 43.06 26.4 42.2 26.4L13.16 26.4C12.3 26.4 11.61 27.1 11.61 27.97C11.61 28.84 12.3 29.54 13.16 29.54ZM18.4 20.87C18.68 21.09 19.02 21.2 19.35 21.2C19.82 21.2 20.28 20.99 20.58 20.59L24.2 15.9L27.81 20.59C28.1 20.98 28.55 21.2 29.03 21.2C29.51 21.2 29.97 20.98 30.26 20.59L33.88 15.9L37.49 20.59C37.78 20.98 38.23 21.2 38.72 21.2C39.19 21.2 39.65 20.98 39.94 20.59L43.55 15.9L47.17 20.59C47.69 21.28 48.67 21.4 49.35 20.87C50.03 20.34 50.15 19.35 49.62 18.66L44.78 12.38C44.49 12 44.03 11.78 43.55 11.78C43.07 11.78 42.62 12 42.33 12.38L38.72 17.07L35.1 12.38C34.81 12 34.36 11.78 33.88 11.78C33.4 11.78 32.94 12 32.65 12.38L29.03 17.07L25.42 12.38C25.13 12 24.68 11.78 24.2 11.78C23.72 11.78 23.26 12 22.97 12.38L18.13 18.67C17.6 19.35 17.72 20.34 18.4 20.87Z" />
	</g>
</svg>