<svg xmlns="http://www.w3.org/2000/svg" viewBox="0 0 89 90" width="89" height="90">
	<style>
		tspan { white-space:pre }
		.shp0 { fill: #00abec } 
	</style>
	<g id="advantages">
		<path id="Shape 1" class="shp0" d="M87.32 51.14C88.11 51.14 88.75 50.49 88.75 49.7L88.75 29.56C88.75 28.38 87.33 27.7 86.42 28.46C84.56 29.99 80.61 32.58 75.08 32.79C68.62 33.03 64 29.84 62.32 28.45C61.79 28.02 61.03 28.02 60.51 28.45C60.26 28.66 60 28.86 59.73 29.05L59.73 28.01L64.46 28.01C65.25 28.01 65.89 27.37 65.89 26.58L65.89 15.78L73.6 15.78C74.39 15.78 75.03 15.14 75.03 14.35L75.03 2.12C75.03 1.32 74.39 0.68 73.6 0.68L17.21 0.68C16.42 0.68 15.78 1.32 15.78 2.12L15.78 12.91L8.07 12.91C7.28 12.91 6.64 13.56 6.64 14.35L6.64 25.15L1.97 25.15C1.18 25.15 0.54 25.79 0.54 26.58L0.54 38.81C0.54 39.6 1.18 40.24 1.97 40.24L11.21 40.24L11.21 49.61L5.02 49.61C4.23 49.61 3.59 50.25 3.59 51.04L3.59 63.27C3.59 64.06 4.23 64.7 5.02 64.7L8.16 64.7L8.16 74.07L3.5 74.07C2.71 74.07 2.07 74.71 2.07 75.5L2.07 87.73C2.07 88.53 2.71 89.17 3.5 89.17L59.89 89.17C60.08 89.17 61.36 89.17 61.41 89.17C61.46 89.17 61.51 89.16 61.56 89.16C65.65 88.73 71.74 87.28 77.53 82.75C85.04 76.88 87.76 69.19 88.71 65.13C88.74 65.02 88.75 64.91 88.75 64.8L88.75 57.25C88.75 56.46 88.11 55.82 87.32 55.82C86.53 55.82 85.89 56.46 85.89 57.25L85.89 64.63C84.99 68.37 82.49 75.23 75.77 80.49C70.59 84.54 65.13 85.89 61.41 86.29C57.7 85.89 52.24 84.54 47.05 80.49C40.33 75.23 37.83 68.37 36.93 64.63L36.93 32.34C39.71 34.07 42.85 35.19 46.1 35.54C49.68 35.93 53.32 35.39 56.65 34.03C58.34 33.34 59.94 32.45 61.41 31.37C63.84 33.14 68.7 35.89 75.18 35.66C79.78 35.48 83.42 33.88 85.89 32.34L85.89 49.7C85.89 50.49 86.53 51.14 87.32 51.14ZM49.12 85.31C49.77 85.67 50.41 86 51.04 86.3L49.12 86.3L49.12 85.31ZM63.03 25.15L53.7 25.15L53.7 15.78L63.03 15.78L63.03 25.15ZM62.84 3.55L72.18 3.55L72.18 12.91L62.84 12.91L62.84 3.55ZM52.17 3.55L59.98 3.55L59.98 12.91L52.17 12.91L52.17 3.55ZM41.5 3.55L49.31 3.55L49.31 12.91L41.5 12.91L41.5 3.55L41.5 3.55ZM30.83 3.55L38.65 3.55L38.65 12.91L30.83 12.91L30.83 3.55ZM18.64 61.84L18.64 52.47L26.45 52.47L26.45 61.84L18.64 61.84ZM20.36 64.7L20.36 74.07L11.02 74.07L11.02 64.7L20.36 64.7ZM23.4 40.24L23.4 49.61L14.07 49.61L14.07 40.24L23.4 40.24L23.4 40.24ZM15.59 37.38L15.59 28.01L23.4 28.01L23.4 37.38L15.59 37.38ZM23.21 64.7L31.02 64.7L31.02 74.07L23.21 74.07L23.21 64.7ZM29.31 61.84L29.31 52.47L34.07 52.47L34.07 61.84L29.31 61.84ZM26.26 49.61L26.26 40.24L34.07 40.24L34.07 49.61L26.26 49.61ZM26.26 37.38L26.26 28.01L34.07 28.01L34.07 37.38L26.26 37.38ZM29.5 25.15L21.69 25.15L21.69 15.78L29.5 15.78L29.5 25.15ZM18.64 3.55L27.98 3.55L27.98 12.91L18.64 12.91L18.64 3.55ZM9.5 15.78L18.83 15.78L18.83 25.15L9.5 25.15L9.5 15.78ZM3.4 37.38L3.4 28.01L12.74 28.01L12.74 37.38L12.64 37.38L3.4 37.38ZM6.45 61.84L6.45 52.47L15.78 52.47L15.78 61.84L6.45 61.84ZM14.26 86.3L4.92 86.3L4.92 76.94L14.26 76.94L14.26 86.3ZM24.93 86.3L17.12 86.3L17.12 76.94L24.93 76.94L24.93 86.3ZM35.6 86.3L27.79 86.3L27.79 76.94L35.6 76.94L35.6 86.3ZM38.45 76.94L39.5 76.94L39.61 76.94C41.1 78.94 42.97 80.93 45.29 82.75C45.62 83 45.94 83.25 46.27 83.48C46.27 83.5 46.27 83.51 46.27 83.53L46.27 86.3L38.45 86.3L38.45 76.94ZM37.71 74.07L33.88 74.07L33.88 64.7L34.07 64.7L34.07 64.8C34.07 64.91 34.09 65.02 34.11 65.13C34.63 67.33 35.67 70.6 37.71 74.07ZM32.36 25.15L32.36 15.78L40.17 15.78L40.17 25.15L32.36 25.15L32.36 25.15ZM44.74 32.43C41.19 31.71 38.53 30.09 36.93 28.87L36.93 28.01L44.74 28.01L44.74 32.43ZM43.03 25.15L43.03 15.78L50.84 15.78L50.84 25.15L43.03 25.15L43.03 25.15ZM47.75 32.79C47.7 32.79 47.65 32.79 47.6 32.78L47.6 28.01L56.87 28.01L56.87 30.78C56.87 30.78 56.87 30.79 56.87 30.79C54.72 31.86 51.57 32.94 47.75 32.79ZM80.85 38.06C78.75 38.63 76.56 38.92 74.38 38.92C70.06 38.92 65.93 37.83 62.11 35.68C61.68 35.43 61.15 35.43 60.71 35.68C56.89 37.83 52.76 38.92 48.44 38.92C46.26 38.92 44.08 38.63 41.97 38.06C41.08 37.81 40.17 38.51 40.17 39.44L40.17 46.65C40.17 47.44 40.81 48.08 41.6 48.08C42.39 48.08 43.03 47.44 43.03 46.65L43.03 41.25C44.81 41.61 46.63 41.79 48.44 41.79C53 41.79 57.35 40.7 61.41 38.56C65.47 40.7 69.83 41.79 74.38 41.79C76.2 41.79 78.01 41.61 79.8 41.25L79.8 63.86C79.02 66.67 77.01 71.77 72.03 75.66C68.2 78.65 64.18 79.74 61.41 80.13C58.65 79.74 54.62 78.65 50.8 75.66C45.82 71.77 43.8 66.67 43.03 63.86L43.03 54.19C43.03 53.4 42.39 52.76 41.6 52.76C40.81 52.76 40.17 53.4 40.17 54.19L40.17 64.05C40.17 64.17 40.19 64.3 40.22 64.42C41.05 67.53 43.29 73.43 49.04 77.92C53.46 81.38 58.11 82.59 61.23 83C61.35 83.01 61.47 83.01 61.6 83C64.72 82.59 69.37 81.38 73.78 77.92C79.53 73.43 81.78 67.53 82.61 64.42C82.64 64.3 82.65 64.17 82.65 64.05L82.65 39.44C82.65 38.51 81.75 37.81 80.85 38.06ZM62.84 58.14L62.84 50.21C64.72 50.82 66.08 52.59 66.08 54.67C66.08 55.46 66.72 56.1 67.51 56.1C68.3 56.1 68.94 55.46 68.94 54.67C68.94 51 66.31 47.93 62.84 47.26L62.84 45.5C62.84 44.71 62.2 44.06 61.41 44.06C60.62 44.06 59.98 44.71 59.98 45.5L59.98 47.26C56.51 47.93 53.89 51 53.89 54.67C53.89 58.39 57.04 59.59 59.98 60.37L59.98 68.3C58.11 67.69 56.74 65.93 56.74 63.84C56.74 63.05 56.1 62.41 55.32 62.41C54.53 62.41 53.89 63.05 53.89 63.84C53.89 67.52 56.51 70.58 59.98 71.26L59.98 73.02C59.98 73.81 60.62 74.45 61.41 74.45C62.2 74.45 62.84 73.81 62.84 73.02L62.84 71.26C66.31 70.58 68.94 67.52 68.94 63.84C68.94 60.13 65.79 58.93 62.84 58.14ZM59.98 57.39C57.79 56.74 56.74 56.08 56.74 54.67C56.74 52.59 58.11 50.82 59.98 50.21L59.98 57.39ZM62.84 68.3L62.84 61.13C65.03 61.78 66.08 62.44 66.08 63.84C66.08 65.93 64.72 67.69 62.84 68.3Z" />
	</g>
</svg>