<svg xmlns="http://www.w3.org/2000/svg" width="660" height="471" viewBox="0 0 660 471"><defs><mask id="amijb" width="2" height="2" x="-1" y="-1"><path fill="#fff" d="M40 40h580v391H40z"/><path d="M45 40h570c2.761 0 5 2.171 5 4.85v381.298c0 2.68-2.239 4.851-5 4.851H45c-2.761 0-5-2.171-5-4.85V44.85c0-2.679 2.239-4.85 5-4.85z"/></mask><filter id="amija" width="700" height="511" x="-20" y="-20" filterUnits="userSpaceOnUse"><feOffset in="SourceGraphic" result="FeOffset1059Out"/><feGaussianBlur in="FeOffset1059Out" result="FeGaussianBlur1060Out" stdDeviation="20 20"/></filter><linearGradient id="amijc" x1="40" x2="620" y1="235" y2="236" gradientUnits="userSpaceOnUse"><stop offset="0" stop-color="#156297" stop-opacity=".95"/><stop offset="1" stop-color="#00abec" stop-opacity=".95"/></linearGradient></defs><g><g><g filter="url(#amija)"><path fill="none" d="M45 40h570c2.761 0 5 2.171 5 4.85v381.298c0 2.68-2.239 4.851-5 4.851H45c-2.761 0-5-2.171-5-4.85V44.85c0-2.679 2.239-4.85 5-4.85z" mask="url(&quot;#amijb&quot;)"/><path fill-opacity=".2" d="M45 40h570c2.761 0 5 2.171 5 4.85v381.298c0 2.68-2.239 4.851-5 4.851H45c-2.761 0-5-2.171-5-4.85V44.85c0-2.679 2.239-4.85 5-4.85z"/></g><path fill="#384151" d="M45 40h570c2.761 0 5 2.171 5 4.85v381.298c0 2.68-2.239 4.851-5 4.851H45c-2.761 0-5-2.171-5-4.85V44.85c0-2.679 2.239-4.85 5-4.85z"/><path fill="url(#amijc)" d="M45 40h570c2.761 0 5 2.171 5 4.85v381.298c0 2.68-2.239 4.851-5 4.851H45c-2.761 0-5-2.171-5-4.85V44.85c0-2.679 2.239-4.85 5-4.85z"/></g></g></svg>