<svg xmlns="http://www.w3.org/2000/svg" viewBox="0 0 99 100" width="99" height="100">
	<style>
		tspan { white-space:pre }
		.shp0 { fill: #00abec } 
	</style>
	<g id="advantages">
		<path id="Shape 1" class="shp0" d="M30.41 40.5C23.44 40.5 17.76 46.19 17.76 53.18C17.76 60.18 23.44 65.87 30.41 65.87C37.38 65.87 43.05 60.18 43.05 53.18C43.05 46.19 37.38 40.5 30.41 40.5ZM30.41 62.69C25.18 62.69 20.92 58.43 20.92 53.18C20.92 47.93 25.18 43.67 30.41 43.67C35.64 43.67 39.89 47.93 39.89 53.18C39.89 58.43 35.64 62.69 30.41 62.69ZM31.99 46.92L31.99 45.25L28.83 45.25L28.83 46.92C27.03 47.29 25.67 48.89 25.67 50.8C25.67 52.99 27.44 54.77 29.62 54.77L31.2 54.77C31.63 54.77 31.99 55.12 31.99 55.56C31.99 56 31.63 56.35 31.2 56.35L29.62 56.35C29.18 56.35 28.83 56 28.83 55.56L28.83 54.77L25.67 54.77L25.67 55.56C25.67 57.47 27.03 59.08 28.83 59.44L28.83 61.11L31.99 61.11L31.99 59.44C33.79 59.08 35.15 57.47 35.15 55.56C35.15 53.37 33.38 51.6 31.2 51.6L29.62 51.6C29.18 51.6 28.83 51.24 28.83 50.8C28.83 50.37 29.18 50.01 29.62 50.01L31.2 50.01C31.63 50.01 31.99 50.37 31.99 50.8L31.99 51.6L35.15 51.6L35.15 50.8C35.15 48.89 33.79 47.29 31.99 46.92ZM62.02 38.83L62.02 40.5L65.19 40.5L65.19 38.83C66.99 38.46 68.35 36.86 68.35 34.94C68.35 32.76 66.57 30.98 64.39 30.98L62.81 30.98C62.38 30.98 62.02 30.62 62.02 30.19C62.02 29.75 62.38 29.39 62.81 29.39L64.39 29.39C64.83 29.39 65.19 29.75 65.19 30.19L65.19 30.98L68.35 30.98L68.35 30.19C68.35 28.27 66.99 26.67 65.19 26.3L65.19 24.64L62.02 24.64L62.02 26.3C60.22 26.67 58.86 28.27 58.86 30.19C58.86 32.37 60.63 34.15 62.81 34.15L64.39 34.15C64.83 34.15 65.19 34.51 65.19 34.94C65.19 35.38 64.83 35.74 64.39 35.74L62.81 35.74C62.38 35.74 62.02 35.38 62.02 34.94L62.02 34.15L58.86 34.15L58.86 34.94C58.86 36.86 60.22 38.46 62.02 38.83ZM41.47 26.22C48.45 26.22 54.12 20.53 54.12 13.54C54.12 6.54 48.45 0.85 41.47 0.85C34.5 0.85 28.83 6.54 28.83 13.54C28.83 20.53 34.5 26.22 41.47 26.22ZM41.47 4.02C46.7 4.02 50.96 8.29 50.96 13.54C50.96 18.79 46.7 23.05 41.47 23.05C36.24 23.05 31.99 18.79 31.99 13.54C31.99 8.29 36.24 4.02 41.47 4.02ZM39.89 19.8L39.89 21.47L43.05 21.47L43.05 19.8C44.86 19.43 46.22 17.83 46.22 15.92C46.22 13.73 44.44 11.95 42.26 11.95L40.68 11.95C40.25 11.95 39.89 11.6 39.89 11.16C39.89 10.72 40.25 10.37 40.68 10.37L42.26 10.37C42.7 10.37 43.05 10.72 43.05 11.16L43.05 11.95L46.22 11.95L46.22 11.16C46.22 9.24 44.86 7.64 43.05 7.28L43.05 5.61L39.89 5.61L39.89 7.28C38.09 7.64 36.73 9.24 36.73 11.16C36.73 13.35 38.5 15.12 40.68 15.12L42.26 15.12C42.7 15.12 43.05 15.48 43.05 15.92C43.05 16.35 42.7 16.71 42.26 16.71L40.68 16.71C40.25 16.71 39.89 16.35 39.89 15.92L39.89 15.12L36.73 15.12L36.73 15.92C36.73 17.83 38.09 19.43 39.89 19.8ZM92.06 57.93L87.32 57.93L87.32 43.67C87.32 39.29 83.77 35.74 79.41 35.74L75.83 35.74C76.1 34.72 76.25 33.66 76.25 32.57C76.25 25.57 70.58 19.88 63.6 19.88C56.63 19.88 50.96 25.57 50.96 32.57C50.96 33.66 51.11 34.72 51.37 35.74L19.34 35.74C14.98 35.74 11.44 39.29 11.44 43.67L11.44 81.72C11.44 86.1 14.98 89.65 19.34 89.65L33.57 89.65L33.57 96L30.41 96L30.41 99.17L68.35 99.17L68.35 96L65.19 96L65.19 89.65L79.41 89.65C83.77 89.65 87.32 86.1 87.32 81.72L87.32 73.79L89.12 73.79L92.06 72.81L92.06 75.37L98.38 75.37L98.38 72.2L95.22 72.2L95.22 57.93L98.38 57.93L98.38 54.76L92.06 54.76L92.06 57.93ZM63.6 23.05C68.84 23.05 73.09 27.32 73.09 32.57C73.09 37.81 68.84 42.08 63.6 42.08C58.37 42.08 54.12 37.81 54.12 32.57C54.12 27.32 58.37 23.05 63.6 23.05ZM62.02 96L36.73 96L36.73 89.65L62.02 89.65L62.02 96ZM84.15 81.72C84.15 84.35 82.03 86.48 79.41 86.48L19.34 86.48C16.73 86.48 14.6 84.35 14.6 81.72L14.6 80.14L84.15 80.14L84.15 81.72ZM84.15 76.97L14.6 76.97L14.6 43.67C14.6 41.04 16.73 38.91 19.34 38.91L52.67 38.91C54.86 42.69 58.93 45.25 63.6 45.25C68.27 45.25 72.35 42.69 74.54 38.91L79.41 38.91C82.03 38.91 84.15 41.04 84.15 43.67L84.15 57.64L80.25 55.03L66.93 50.29C65.66 49.84 64.3 49.93 63.1 50.54C61.9 51.15 61.03 52.2 60.64 53.49C59.96 55.72 60.97 58.14 63.02 59.23L66.44 61.06L61.47 61.07L59.42 55.94C58.75 54.26 57.15 53.17 55.34 53.17C53.93 53.17 52.6 53.86 51.77 55.01C50.95 56.16 50.73 57.65 51.18 58.99L51.65 60.41L48.19 58.51C47.08 57.91 45.77 57.79 44.57 58.19C43.38 58.59 42.4 59.48 41.88 60.63C40.86 62.88 41.79 65.5 44 66.59L51.81 70.45L68 73.76L84.15 73.78L84.15 76.97ZM58.07 61.09L55.22 61.09L54.17 57.98C54.04 57.6 54.11 57.19 54.34 56.86C54.87 56.12 56.15 56.28 56.49 57.12L58.07 61.09ZM92.06 69.47L88.61 70.62L68.47 70.62L53.02 67.52L45.4 63.75C44.73 63.42 44.45 62.62 44.76 61.94C44.92 61.59 45.21 61.32 45.58 61.2C45.94 61.07 46.33 61.11 46.67 61.3L52.1 64.27L67.11 64.27L73.34 61.15L64.51 56.43C63.78 56.05 63.43 55.2 63.67 54.41C63.81 53.95 64.11 53.58 64.54 53.37C64.96 53.15 65.44 53.12 65.89 53.28L78.67 57.78L83.64 61.1L92.06 61.1L92.06 69.47ZM6.7 18.3L9.86 18.3L9.86 21.47L6.7 21.47L6.7 18.3ZM3.81 23.98L1.57 21.74L3.81 19.5L6.05 21.74L3.81 23.98ZM0.37 24.64L3.53 24.64L3.53 27.81L0.37 27.81L0.37 24.64ZM3.81 32.95L1.57 30.71L3.81 28.46L6.04 30.71L3.81 32.95ZM6.7 30.98L9.86 30.98L9.86 34.15L6.7 34.15L6.7 30.98ZM12.75 28.47L14.98 30.71L12.75 32.95L10.51 30.71L12.75 28.47ZM13.02 24.64L16.18 24.64L16.18 27.81L13.02 27.81L13.02 24.64ZM12.75 19.5L14.98 21.74L12.75 23.98L10.51 21.74L12.75 19.5ZM88.9 4.02L92.06 4.02L92.06 7.19L88.9 7.19L88.9 4.02ZM86 5.23L88.24 7.47L86 9.71L83.77 7.47L86 5.23ZM82.57 10.37L85.74 10.37L85.74 13.54L82.57 13.54L82.57 10.37ZM86 18.68L83.77 16.43L86 14.19L88.24 16.43L86 18.68ZM88.9 16.71L92.06 16.71L92.06 19.88L88.9 19.88L88.9 16.71ZM94.95 14.19L97.18 16.43L94.95 18.67L92.71 16.43L94.95 14.19ZM95.22 10.37L98.38 10.37L98.38 13.54L95.22 13.54L95.22 10.37ZM94.95 5.23L97.18 7.47L94.95 9.71L92.71 7.47L94.95 5.23Z" />
	</g>
</svg>