<svg xmlns="http://www.w3.org/2000/svg" viewBox="0 0 40 40" width="40" height="40">
	<style>
		tspan { white-space:pre }
		.shp0 { fill: #ffffff } 
	</style>
	<g id="header">
		<path id="Forma 1" class="shp0" d="M40 20C40 8.97 31.03 0 20 0C8.97 0 0 8.97 0 20C0 25.82 2.5 31.07 6.49 34.73L6.47 34.75L7.12 35.29C7.16 35.33 7.21 35.36 7.25 35.39C7.6 35.68 7.95 35.95 8.32 36.21C8.43 36.3 8.55 36.38 8.67 36.47C9.06 36.73 9.46 36.99 9.87 37.23C9.96 37.28 10.04 37.33 10.13 37.38C10.58 37.64 11.04 37.88 11.5 38.1C11.54 38.11 11.57 38.13 11.6 38.14C13.12 38.85 14.75 39.37 16.44 39.67C16.49 39.68 16.53 39.69 16.58 39.7C17.1 39.79 17.63 39.86 18.17 39.91C18.24 39.92 18.3 39.92 18.37 39.93C18.91 39.97 19.45 40 20 40C20.54 40 21.08 39.97 21.62 39.93C21.68 39.92 21.75 39.92 21.82 39.91C22.35 39.86 22.88 39.79 23.4 39.7C23.45 39.69 23.49 39.69 23.54 39.68C25.21 39.38 26.81 38.87 28.31 38.18C28.36 38.16 28.42 38.13 28.47 38.11C28.92 37.9 29.36 37.67 29.79 37.43C29.9 37.37 30 37.31 30.11 37.24C30.5 37.01 30.89 36.77 31.26 36.52C31.39 36.42 31.53 36.33 31.66 36.23C31.98 36 32.29 35.76 32.6 35.52C32.66 35.46 32.74 35.42 32.8 35.36L33.47 34.8L33.45 34.79C37.47 31.13 40 25.85 40 20ZM1.45 20C1.45 9.77 9.77 1.45 20 1.45C30.23 1.45 38.55 9.77 38.55 20C38.55 25.51 36.13 30.46 32.3 33.86C32.08 33.71 31.87 33.58 31.65 33.47L25.49 30.39C24.94 30.12 24.6 29.56 24.6 28.94L24.6 26.79C24.74 26.62 24.89 26.42 25.04 26.2C25.84 25.07 26.48 23.82 26.95 22.47C27.87 22.04 28.46 21.12 28.46 20.08L28.46 17.5C28.46 16.87 28.23 16.26 27.82 15.78L27.82 12.39C27.86 12.01 27.99 9.88 26.45 8.12C25.11 6.59 22.94 5.82 20 5.82C17.06 5.82 14.89 6.59 13.55 8.12C12.01 9.88 12.14 12.01 12.18 12.39L12.18 15.78C11.77 16.26 11.54 16.87 11.54 17.5L11.54 20.08C11.54 20.88 11.9 21.63 12.51 22.13C13.1 24.44 14.31 26.19 14.76 26.78L14.76 28.88C14.76 29.48 14.44 30.02 13.92 30.31L8.16 33.44C7.98 33.54 7.8 33.66 7.62 33.79C3.84 30.39 1.45 25.47 1.45 20Z" />
	</g>
</svg>