<svg xmlns="http://www.w3.org/2000/svg" width="16" height="11" viewBox="0 0 16 11"><g><g><path fill="#ffffff" d="M15.883 1.25c-.213-.169-.978-.169-1.735-.169-.773.017-1.546.017-1.727.093-.165.068-.536 1.032-1.017 2.021-.553 1.117-1.222 2.2-1.648 2.182-.56 0-.426-1.835-.387-3.196.008-.889-.126-1.176-.244-1.252C8.833.71 8.029.5 8.029.5s-2.414-.196-2.753.92c.465.068 1.254-.084.947 3.374-.024.17-.371 1.59-1.491-.33-.284-.481-1.356-3.365-1.735-3.382C1.76 1.056.53.997.103 1.251c-.402.253.536 2.232 2.122 4.888 1.285 2.181 2.65 3.873 5.015 4.295.45.052 1.6.102 1.972-.084.244-.127-.064-2.004.78-2.19.371-.076 1.814 1.962 2.358 2.19.332.144 1.057.203 1.798.169.805-.025 1.719.085 1.806-.507.197-1.294-2.436-2.986-2.508-3.78-.063-.576.962-1.633 1.483-2.445.646-.98 1.356-2.164.954-2.537z"/></g></g></svg>
