<svg xmlns="http://www.w3.org/2000/svg" width="16" height="17" viewBox="0 0 16 17"><g><g><path fill="#ffffff" d="M15.966 8.417c0 .07.009.124.009.195 0 4.405-3.516 7.96-7.846 7.96a7.731 7.731 0 0 1-3.784-.984l-4.347 1.41 1.42-4.273A8.09 8.09 0 0 1 .292 8.612c0-.115 0-.24.017-.346C.482 4.02 3.921.661 8.13.661c4.26 0 7.725 3.448 7.837 7.756zm-4.243 1.808c.19.089.32.151.364.213.052.089.052.479-.104.93-.165.47-.953.905-1.3.931-.346.027-.346.293-2.312-.487-1.956-.78-3.186-2.81-3.281-2.943-.061-.097-.494-.656-.676-1.356a2.086 2.086 0 0 1-.113-.656c0-.975.494-1.436.685-1.63a.655.655 0 0 1 .51-.249c.13 0 .251.017.373.017.104 0 .269-.07.424.328.165.382.555 1.357.59 1.454.06.089.085.204.016.337-.043.089-.069.15-.12.23a.337.337 0 0 1-.07.089c-.095.124-.2.257-.294.337-.096.115-.182.204-.078.416.104.187.493.816 1.074 1.34.727.673 1.342.877 1.55.974.181.089.294.08.407-.062.112-.124.484-.558.606-.753.13-.204.25-.16.441-.107.174.071 1.11.55 1.308.647zm-3.594 5.088c3.637 0 6.59-3.014 6.59-6.701 0-.168 0-.346-.017-.523-.26-3.448-3.11-6.169-6.573-6.169-3.412 0-6.226 2.65-6.555 6.045a5.409 5.409 0 0 0-.035.647 6.74 6.74 0 0 0 1.256 3.927l-.814 2.49 2.528-.824a6.462 6.462 0 0 0 3.62 1.108z"/></g></g></svg>
