<svg xmlns="http://www.w3.org/2000/svg" width="16" height="13" viewBox="0 0 16 13"><g><g><path fill="#ffffff" d="M15.969 1.372c-.58.25-1.213.422-1.88.508A3.216 3.216 0 0 0 15.536.097a6.709 6.709 0 0 1-2.088.784 3.278 3.278 0 0 0-2.4-1.016c-1.803 0-3.276 1.438-3.276 3.203 0 .258.044.5.096.732A9.326 9.326 0 0 1 1.108.45a3.217 3.217 0 0 0-.45 1.61c0 1.12.59 2.101 1.456 2.67a3.193 3.193 0 0 1-1.481-.397v.044c0 .413.078.792.225 1.153a3.264 3.264 0 0 0 2.409 1.98c-.286.078-.564.12-.867.12-.208 0-.416-.025-.615-.068a3.303 3.303 0 0 0 3.059 2.239A6.656 6.656 0 0 1 .78 11.17a8.14 8.14 0 0 1-.788-.043 9.505 9.505 0 0 0 5.025 1.437c5.12 0 8.283-3.521 9.106-7.18a8.76 8.76 0 0 0 .217-1.937v-.414a6.758 6.758 0 0 0 1.629-1.661z"/></g></g></svg>
