<svg xmlns="http://www.w3.org/2000/svg" width="16" height="16" viewBox="0 0 16 16"><g><g><path fill="#ffffff" d="M11.446 16H4.553A4.559 4.559 0 0 1 0 11.444V4.553A4.56 4.56 0 0 1 4.553-.001h6.893A4.56 4.56 0 0 1 16 4.553v6.892A4.56 4.56 0 0 1 11.446 16zM4.553 1.37a3.186 3.186 0 0 0-3.182 3.183v6.892a3.186 3.186 0 0 0 3.182 3.183h6.893a3.186 3.186 0 0 0 3.182-3.183V4.553a3.186 3.186 0 0 0-3.182-3.183zM8 12.096a4.101 4.101 0 0 1-4.097-4.097A4.102 4.102 0 0 1 8 3.902 4.102 4.102 0 0 1 12.097 8 4.101 4.101 0 0 1 8 12.096zm0-6.822a2.729 2.729 0 0 0-2.726 2.725A2.728 2.728 0 0 0 8 10.724 2.728 2.728 0 0 0 10.725 8 2.729 2.729 0 0 0 8 5.274zm5.257-1.606a.985.985 0 1 1-1.97 0 .985.985 0 0 1 1.97 0z"/></g></g></svg>
